<svg width="152" height="32" viewBox="0 0 152 32" xmlns="http://www.w3.org/2000/svg">
<path fill-rule="evenodd" clip-rule="evenodd" d="M73.8824 1.17648H79.0781V16.5627L84.6869 8.55335H90.674L84.2722 16.5627L91.7647 26.1177H85.4437L79.0781 17.3707V26.1177H73.8824V1.17648Z"/>
<path fill-rule="evenodd" clip-rule="evenodd" d="M145.88 6.13262C146.171 6.41546 146.499 6.63262 146.914 6.81571C147.274 6.98962 147.683 7.07419 148.161 7.07419C149.077 7.07419 149.868 6.75727 150.512 6.13262C151.142 5.52121 151.448 4.79733 151.448 3.91843C151.448 3.02983 151.133 2.27399 150.512 1.67105C149.89 1.06847 149.1 0.762848 148.161 0.762848C147.681 0.762848 147.271 0.848124 146.918 1.01938C146.538 1.18676 146.203 1.39598 145.88 1.67105C145.587 1.95531 145.363 2.27558 145.174 2.67901C144.993 3.06372 144.909 3.45727 144.909 3.91843C144.909 4.3796 144.993 4.77331 145.174 5.15785C145.37 5.57788 145.606 5.9008 145.88 6.13262Z"/>
<path fill-rule="evenodd" clip-rule="evenodd" d="M101.169 21.2224C98.9342 21.2224 97.1231 19.3876 97.1231 17.1243C97.1231 14.8611 98.9342 13.0261 101.169 13.0261C103.403 13.0261 105.214 14.8611 105.214 17.1243C105.214 19.3876 103.403 21.2224 101.169 21.2224ZM105.118 8.55608V9.99713C104.741 9.64067 104.253 9.28967 103.643 8.93444C102.72 8.43338 101.602 8.17914 100.322 8.17914C99.1181 8.17914 97.9705 8.43073 96.9111 8.92685C95.9052 9.39826 95.0212 10.0469 94.2051 10.9143C93.4317 11.7721 92.8199 12.7571 92.3857 13.8455C91.9518 14.9688 91.7316 15.8851 91.7316 17.1242C91.7316 18.3759 91.9522 19.2817 92.3857 20.3689C92.8199 21.4923 93.4337 22.48 94.2051 23.2999C94.9978 24.1788 95.8831 24.8402 96.9111 25.3215C97.9703 25.818 99.118 26.0694 100.322 26.0694C101.644 26.0694 102.732 25.8097 103.643 25.2795C104.239 24.9555 104.733 24.6107 105.118 24.2496V25.6922H110.537V8.55608H105.118Z"/>
<path fill-rule="evenodd" clip-rule="evenodd" d="M145.469 25.6924H150.888V8.55603H145.469V25.6924Z"/>
<path fill-rule="evenodd" clip-rule="evenodd" d="M50.6239 8.24586V13.6979C50.2803 13.6668 50.0617 13.6356 49.5618 13.6356C47.063 13.6356 44.6578 14.3833 44.6578 18.2774V25.6922H39.3476V8.55749H44.4879V10.4992C46.2177 8.50558 47.5786 8.15247 49.6556 8.15247C50.0617 8.15247 50.374 8.18354 50.6239 8.24586Z"/>
<path fill-rule="evenodd" clip-rule="evenodd" d="M64.8526 8.55606V15.607C64.8526 16.3259 64.8162 17.4861 64.7379 18.0514C64.4435 20.1764 63.5593 21.2224 61.8061 21.2224C60.2965 21.2224 59.3216 20.4083 58.9306 18.8283C58.7874 18.2499 58.7596 17.5346 58.7596 16.7677V8.55606H53.3732V18.2137C53.3732 19.4204 53.5285 20.4582 53.8443 21.3783C54.1479 22.3717 54.5947 23.2132 55.1723 23.8786C55.7536 24.5483 56.4872 25.0918 57.353 25.4936C58.1768 25.8757 59.1696 26.0693 60.3037 26.0693C61.5117 26.0693 62.5461 25.8381 63.378 25.3818C63.9631 25.0609 64.451 24.6954 64.8526 24.2748V25.6924H70.2717V8.55606H64.8526Z"/>
<path fill-rule="evenodd" clip-rule="evenodd" d="M140.416 10.3009C139.188 8.8929 137.484 8.17909 135.218 8.17909C133.305 8.17909 130.845 9.11042 129.523 11.0488C127.621 8.17591 124.884 8.17909 124.124 8.17909C123.561 8.17909 121.562 8.15914 119.739 9.98878V8.55603H114.509V25.6924H119.896V18.0406C119.896 17.1773 119.922 16.3723 120.057 15.7212C120.426 13.9426 121.558 13.0263 122.98 13.0263C124.98 13.0263 125.376 14.6802 125.527 15.6259C125.601 16.0895 125.635 17.0406 125.635 17.6301V25.6924H131.027V18.0406C131.027 17.1773 131.053 16.3723 131.188 15.7212C131.556 13.9426 132.689 13.0263 134.111 13.0263C136.11 13.0263 136.507 14.6802 136.658 15.6259C136.731 16.0895 136.766 17.0406 136.766 17.6301V25.6924H142.18V16.0349C142.18 13.6498 141.588 11.7226 140.416 10.3009Z"/>
<path fill-rule="evenodd" clip-rule="evenodd" d="M25.2822 20.5486C24.7743 19.6384 24.9736 19.0735 25.7835 17.3561C26.1283 16.6248 26.5541 15.7078 27.0766 14.4512C29.5648 14.8382 29.8955 15.1659 28.7939 17.1165C28.4397 17.7436 27.9276 18.42 27.3094 19.0346C26.8047 19.5366 26.0696 20.1896 25.2822 20.5486ZM24.074 26.0444C23.379 26.2383 22.5373 26.3553 21.6646 26.3539C20.9519 26.3527 19.9689 26.2962 19.1576 25.9946C19.4439 24.9928 19.9854 24.734 21.7756 24.0906C22.5378 23.817 23.4892 23.4686 24.7494 22.9487C26.2344 24.9771 26.236 25.442 24.074 26.0444ZM14.4069 29.0287C13.7782 28.6756 13.1 28.1648 12.484 27.5483C11.9807 27.0448 11.3259 26.3117 10.9658 25.5262C11.8786 25.0197 12.4449 25.2185 14.1667 26.0262C14.8999 26.3702 15.8196 26.7948 17.0794 27.316C16.6912 29.7976 16.3628 30.1274 14.4069 29.0287ZM5.45556 24.3214C5.26137 23.6281 5.144 22.7887 5.14542 21.9181C5.14648 21.2073 5.2033 20.2271 5.50548 19.4179C6.51007 19.7032 6.7694 20.2433 7.41429 22.029C7.68902 22.7891 8.03811 23.7379 8.55943 24.995C6.52565 26.4759 6.05973 26.4775 5.45556 24.3214ZM2.46338 14.6797C2.81742 14.0526 3.32972 13.376 3.9477 12.7616C4.45256 12.2598 5.18773 11.6066 5.97511 11.2476C6.48298 12.1578 6.28366 12.7227 5.47379 14.4401C5.12896 15.1712 4.70322 16.0884 4.18066 17.3448C1.69246 16.9578 1.36196 16.6305 2.46338 14.6797ZM7.18328 5.75161C7.87826 5.55793 8.71999 5.44087 9.5927 5.44228C10.3056 5.44352 11.2882 5.50002 12.0997 5.80157C11.8134 6.80335 11.2719 7.06218 9.48171 7.70537C8.71964 7.97939 7.76815 8.32756 6.50777 8.84752C5.02292 6.81889 5.02133 6.35419 7.18328 5.75161ZM16.8502 2.76728C17.479 3.12057 18.1573 3.63135 18.7733 4.24788C19.2766 4.75124 19.9314 5.48448 20.2915 6.2698C19.3787 6.77651 18.8125 6.57754 17.0906 5.76979C16.3574 5.42604 15.4377 5.00125 14.1779 4.48005C14.5661 1.99856 14.8945 1.66875 16.8502 2.76728ZM25.8017 7.47479C25.9959 8.16795 26.1133 9.00747 26.1119 9.8779C26.1108 10.5889 26.054 11.5691 25.7518 12.3783C24.7474 12.0928 24.4877 11.5529 23.843 9.76737C23.5683 9.00712 23.219 8.05831 22.6979 6.80123C24.7317 5.32028 25.1976 5.31869 25.8017 7.47479ZM24.151 16.6094C23.1149 18.6563 22.691 19.4024 23.7028 21.4144C22.6795 21.859 21.8572 22.1796 21.1505 22.4116C18.9666 23.1281 18.1382 23.3567 17.4269 25.493C16.3883 25.0857 15.5795 24.7324 14.9153 24.398C12.8632 23.3646 12.1152 22.942 10.0977 23.951C9.652 22.9305 9.33071 22.1104 9.09811 21.4056C8.37958 19.2274 8.15052 18.401 6.00839 17.6917C6.41678 16.6557 6.771 15.849 7.10627 15.1866C8.14237 13.1398 8.56634 12.3938 7.55449 10.3818C8.57767 9.93722 9.4001 9.61659 10.1068 9.3846C12.2905 8.66796 13.1193 8.43949 13.8302 6.30299C14.869 6.71048 15.6778 7.06377 16.342 7.39817C18.3942 8.43155 19.1421 8.85422 21.1596 7.84503C21.6053 8.8657 21.9266 9.6858 22.1592 10.3908C22.8777 12.5688 23.1068 13.3952 25.2489 14.1043C24.8405 15.1403 24.4863 15.9472 24.151 16.6094ZM31.2159 14.9911C30.9215 13.4336 29.1703 12.9978 27.5111 12.736C27.7975 11.6597 27.9386 10.7187 27.94 9.8809C27.9433 7.82226 27.3792 5.1981 26.0076 4.26395C24.6952 3.37005 23.1479 4.29696 21.789 5.28215C21.2286 4.31886 20.6611 3.55419 20.0681 2.96061C18.611 1.50261 16.3517 0.0449684 14.7194 0.351646C13.1575 0.645258 12.7206 2.39193 12.4583 4.04696C11.379 3.76112 10.4355 3.62058 9.59553 3.61899C7.53165 3.61563 4.9006 4.17832 3.96381 5.54627C3.06755 6.85543 3.99709 8.39871 4.98468 9.75395C4.01904 10.3129 3.25219 10.8788 2.65722 11.4703C1.19539 12.9235 -0.266094 15.177 0.0413907 16.8049C0.335598 18.3626 2.08704 18.7984 3.74625 19.06C3.45983 20.1365 3.31875 21.0775 3.31733 21.9153C3.31379 23.9738 3.87795 26.5981 5.24968 27.5324C6.56211 28.4261 8.10945 27.4991 9.46843 26.514C10.0289 27.4772 10.5962 28.242 11.1892 28.8356C12.6463 30.2934 14.9056 31.7512 16.5379 31.4445C18.0996 31.1509 18.5367 29.4041 18.799 27.7492C19.8783 28.0351 20.8216 28.1756 21.6616 28.177C23.7258 28.1806 26.3567 27.6179 27.2935 26.2497C28.1897 24.9408 27.2602 23.3975 26.2724 22.0422C27.2383 21.4833 28.0051 20.9172 28.6001 20.3258C30.0619 18.8727 31.5234 16.6192 31.2159 14.9911Z"/>
</svg>
