<svg width="56" height="46" viewBox="0 0 56 46" fill="none" xmlns="http://www.w3.org/2000/svg">
<path d="M48.2104 22C48.2104 10.402 38.8202 1 27.2368 1C17.8304 1 9.87023 7.20013 7.21045 15.7415" stroke="black" stroke-width="2"/>
<path fill-rule="evenodd" clip-rule="evenodd" d="M46.69 24.2826L49.2061 25.9166L50.84 23.4006L54.6524 17.5299L52.1364 15.8959L48.324 21.7666L42.4533 17.9542L40.8193 20.4702L46.69 24.2826Z" fill="black"/>
<path d="M7 23.0447C7 34.6427 16.3902 44.0447 27.9736 44.0447C37.3801 44.0447 45.3402 37.8445 48 29.3032" stroke="black" stroke-width="2"/>
<path fill-rule="evenodd" clip-rule="evenodd" d="M8.52041 20.762L6.00439 19.1281L4.37048 21.6441L0.558004 27.5148L3.07402 29.1487L6.88649 23.278L12.7572 27.0905L14.3911 24.5745L8.52041 20.762Z" fill="black"/>
</svg>
