<svg width="375" height="375" viewBox="0 0 375 375" fill="none" xmlns="http://www.w3.org/2000/svg">
<path fill-rule="evenodd" clip-rule="evenodd" d="M282.79 160.525C292.826 168.007 306.681 167.288 316.094 159.517C317.581 158.289 318.96 156.883 320.193 155.308L375 85.2586V375H0V0H207.682L127.446 48.0462C114.788 55.6258 110.619 71.7306 118.134 84.0171C125.65 96.3041 142.004 100.12 154.661 92.54L201.652 64.4018L131.753 153.318C123.382 163.966 124.421 178.951 134.165 188.091C143.908 197.231 159.23 197.595 169.721 188.935L332.148 54.8542L278.103 123.928C269.069 135.475 271.167 151.86 282.79 160.525Z"/>
</svg>
