<svg xmlns="http://www.w3.org/2000/svg" width="715.37225" height="391.61414" viewBox="0 0 715.37225 391.61414">
  <path d="M -61.455078 -33.066406 L -61.455078 455.82031 L 844.77539 455.82031 L 844.77539 -33.066406 L -61.455078 -33.066406 z M 518.42383 0.0078125 C 534.96447 0.34076562 551.0818 10.437616 559.8418 27.384766 C 568.5928 44.312966 567.96619 64.138375 559.36719 79.109375 L 650.12695 39.203125 C 671.47895 29.818225 696.67981 39.796388 708.75781 62.429688 C 720.83681 85.063688 715.9715 113.17961 697.4375 127.84961 L 492.94922 289.70117 L 512.53906 290.40625 C 538.05506 291.32525 559.09611 314.7182 559.53711 342.6582 C 559.90911 366.2042 545.53052 385.46558 525.72852 390.39258 C 522.03352 391.31158 518.15167 391.73094 514.13867 391.58594 L 355.40625 385.87305 C 335.50125 385.15705 317.61337 370.55948 311.01367 349.64648 C 304.41457 328.73448 310.58778 306.20714 326.33398 293.74414 L 329.77539 291.02148 L 247.76953 327.07812 C 245.56773 328.04712 243.32124 328.812 241.05664 329.375 C 221.33798 334.281 199.93678 324.13373 189.11328 303.80273 C 177.04678 281.13773 181.95922 253.00319 200.54102 238.36719 L 209.77344 231.09766 L 64.126953 290.0957 C 40.607953 299.6257 13.514046 286.04467 3.6230469 259.76367 C -6.2679531 233.48267 4.7855473 204.45283 28.310547 194.92383 L 501.99805 3.0390625 C 507.3488 0.8723125 512.91028 -0.10317187 518.42383 0.0078125 z "/>
</svg>
