<svg xmlns="http://www.w3.org/2000/svg"
   width="503.94543"
   height="262.05045"
   viewBox="0 0 503.94543 262.05045">
  <path
     d="M 0 -1.1171875 L 0 264.36328 L 506.0918 264.36328 L 506.0918 -1.1171875 L 0 -1.1171875 z M 124.62305 0.005859375 C 125.5951 0.026012535 126.57504 0.096605627 127.55859 0.21875 L 475.84961 43.517578 C 493.14661 45.667878 505.64181 63.005741 503.75781 82.244141 C 501.87381 101.48244 486.32034 115.33655 469.02734 113.18555 L 361.9375 99.871094 L 369.35352 103.06445 C 384.28052 109.49045 392.54422 127.32587 388.57422 144.54688 C 385.01322 159.99388 372.62483 170.55283 358.67383 170.79883 C 357.07183 170.82783 355.44645 170.7188 353.81445 170.4668 L 293.01367 161.08398 L 295.7793 162.28125 C 308.4393 167.76725 316.54077 181.65042 315.88477 196.73242 C 315.22877 211.81442 305.96267 224.70561 292.88867 228.72461 C 292.88867 228.72461 250.51798 241.75067 229.33398 248.26367 L 188.63281 260.77734 C 185.99681 261.58834 183.34938 262.00088 180.73438 262.04688 C 166.72537 262.29487 153.76231 252.04531 149.82031 236.32031 C 145.14231 217.66031 154.93436 198.35612 171.69336 193.20312 L 184.55859 189.25 L 20.148438 118.00977 C 5.2463377 111.55277 -2.9841 93.719278 1 76.517578 C 4.9838 59.315878 19.921253 48.193966 35.751953 50.634766 L 103.04492 61.019531 C 94.678519 52.593731 90.735644 39.522431 93.527344 26.707031 C 97.020937 10.669969 110.04229 -0.29643803 124.62305 0.005859375 z "/>
</svg>
