<svg width="375" height="375" viewBox="0 0 375 375" fill="none" xmlns="http://www.w3.org/2000/svg">
<path fill-rule="evenodd" clip-rule="evenodd" d="M145.025 224.918C150.327 227.576 156.052 228.012 161.202 226.58C167.315 224.88 172.618 220.547 175.442 214.172C180.645 202.426 175.462 188.191 163.866 182.38L139.346 170.091L343.41 150.018C344.699 149.892 345.95 149.656 347.156 149.32C356.812 146.634 363.582 137.557 363.381 126.83C363.155 114.762 354.179 104.45 342.525 102.869L268.216 92.7867L375 85.3916V375H0V0H189.266L139.317 4.57948C127.708 5.64461 119.051 15.5581 119.198 27.6205C119.345 39.6832 128.248 50.0526 139.891 51.7193L150.564 53.2478L33.2416 61.3724C21.4791 62.1875 12.5661 72.0942 12.6299 84.2839C12.694 96.4739 21.7135 106.977 33.4896 108.575L136.391 122.536L53.0568 130.733C42.8605 131.735 34.8046 139.623 33.3219 150.053C31.8387 160.483 37.2894 170.923 46.6736 175.626L145.025 224.918ZM314.975 0C317.503 3.37845 319.22 7.45728 319.768 11.9377C320.56 18.4127 318.762 24.5109 315.212 29.1535L375 37.7141V0H314.975Z"/>
</svg>
