<svg xmlns="http://www.w3.org/2000/svg" width="775" height="799" viewBox="0 0 775 799">
  <path d="M -37.242188 -47.398438 L -37.242188 839.62695 L 805.77148 839.62695 L 805.77148 -47.398438 L -37.242188 -47.398438 z M 249.32617 -1.390625 L 392.4043 -1.390625 L 410.06055 142.55273 L 438.54297 70.140625 C 443.00897 36.185125 472.24547 10.966062 506.48047 11.539062 C 536.91247 12.048363 562.67655 32.795744 570.31055 61.339844 C 571.26455 64.906844 571.93587 68.594959 572.29688 72.380859 L 629.56836 671.84961 L 664.39062 601.32227 C 680.85863 567.96927 721.23245 554.25641 754.56445 570.69141 C 763.68845 575.19041 775.4375 588.93359 775.4375 588.93359 L 775.4375 680.40625 L 716.16797 800.04688 L 506.55273 800.04688 L 494.66992 675.63086 L 478.14453 800.04688 L 309.89648 800.04688 L 298.08203 627.04297 L 293.76562 658.13281 C 289.05563 692.04481 259.65359 717.04914 225.43359 716.24414 C 191.21459 715.43814 163.07616 689.07842 160.03516 654.98242 L 119.54297 200.55078 C 116.24297 163.51878 143.58814 130.79117 180.61914 127.45117 C 198.98714 125.79517 216.28884 131.68373 229.46484 142.55273 L 249.32617 -1.390625 z "/>
</svg>
