<svg xmlns="http://www.w3.org/2000/svg" width="514.17657" height="315.64899" viewBox="0 -1 514.17657 317">
  <path d="M -12.220703 164.87891 L -12.220703 321.66016 L 534.20312 321.66016 L 534.20312 164.87891 L 445.20508 164.87891 L 501.42578 207.10742 C 514.48078 216.91342 518.03244 234.9917 509.64844 248.9707 C 502.34544 261.1477 488.04489 266.77841 474.71289 263.44141 C 472.74089 262.94741 470.79072 262.25728 468.88672 261.36328 L 331.38477 196.78516 L 414.43164 258.23047 C 427.45564 267.86547 431.19414 285.734 423.11914 299.75 C 415.94214 312.209 401.4603 318.09517 387.9043 314.70117 C 386.2113 314.27717 384.53181 313.70923 382.88281 312.99023 L 121.78516 199.11914 L 142.98828 229.69141 C 153.01538 244.14841 149.44533 263.97842 135.01562 273.98242 C 127.18433 279.41142 117.76499 280.83064 109.18359 278.68164 C 101.95359 276.87164 95.319475 272.52702 90.734375 265.91602 L 20.660156 164.87891 L -12.220703 164.87891 z " fill="#ffd567"/>
  <path d="M -12.220703 -7.3164062 L -12.220703 165.51367 L 21.099609 165.51367 L 5.6894531 143.29492 C -2.4250469 131.59492 -1.8053688 115.94303 7.2070312 104.95703 C 16.219332 93.969026 31.434869 90.312906 44.480469 96.003906 L 151.10547 142.50586 L 36.105469 57.419922 C 22.944769 47.682322 19.285025 29.562625 27.640625 15.515625 C 35.996525 1.4691251 53.647557 -3.9310094 68.460938 3.0253906 L 216.21094 72.416016 L 204.33789 63.498047 C 191.38689 53.771247 187.77536 35.884234 195.94336 21.927734 C 204.11036 7.9717345 221.45586 2.3927844 236.25586 8.9589844 L 433.51562 96.486328 C 449.59062 103.61933 456.86848 122.42709 449.77148 138.49609 C 446.25148 146.46609 439.8548 152.2648 432.3418 155.2168 L 446.05078 165.51367 L 534.20312 165.51367 L 534.20312 -7.3164062 L -12.220703 -7.3164062 z "/>
</svg>
