<svg xmlns="http://www.w3.org/2000/svg" width="1100" height="700" viewBox="0 0 1100 700">
  <path d="M -15.986328 -19.388672 L -15.986328 731.97266 L 1127.041 731.97266 L 1127.041 -19.388672 L -15.986328 -19.388672 z M 95.984375 9.3144531 C 99.19196 9.3354784 102.43855 9.5994562 105.70508 10.119141 L 1026.8848 156.68555 C 1058.1848 161.66655 1081.1652 188.77772 1080.8652 220.38672 C 1080.5752 251.99472 1057.1048 278.53995 1025.7148 282.75195 L 835.67773 319.61914 L 949.56445 362.82617 C 981.11445 369.68217 1002.6342 398.92752 999.74414 430.97852 C 996.85414 463.02852 970.45484 487.82067 938.21484 488.76367 L 762.39258 493.90625 L 835.67773 589.73438 C 857.10273 617.75037 851.76295 657.72262 823.75195 679.01562 C 803.60295 694.33163 777.20981 695.80981 756.00781 685.00781 C 747.73481 680.79181 740.25228 674.7058 734.23828 666.8418 L 585.53711 472.40039 C 572.24011 455.01239 568.85461 432.20217 576.22461 411.95117 L 203.6875 349.16602 C 173.3825 342.57402 152.13583 315.23208 153.29883 284.33008 C 154.46283 253.42808 177.70216 227.89053 208.41016 223.76953 L 428.53906 214.21875 L 85.96875 135.95703 C 51.12575 130.41603 27.299 97.750299 32.75 63 C 37.689063 31.508447 64.977723 9.1112087 95.984375 9.3144531 z "/>
</svg>
