<svg xmlns="http://www.w3.org/2000/svg" width="793" height="621" viewBox="0 0 793 621" >
  <path d="M 0 -1.421875 L 0 624.10742 L 795.375 624.10742 L 795.375 -1.421875 L 0 -1.421875 z M 472.83594 -0.796875 L 558.61914 40.458984 L 531.76758 20.291016 C 524.39058 14.750116 513.74609 -0.4140625 513.74609 -0.4140625 L 793 -0.4140625 C 793 -0.4140625 793.99975 415.99928 793.96875 523.61328 C 643.89375 458.22228 344.74219 327.44141 344.74219 327.44141 L 392.67383 396.61328 C 415.34083 429.32628 407.2315 474.22358 374.5625 496.89258 C 356.8325 509.19458 335.51266 512.42327 316.09766 507.57227 C 299.73966 503.48527 284.73314 493.66503 274.36914 478.70703 L 82.121094 201.25391 C 63.777794 174.77991 65.203734 139.34694 85.615234 114.46094 C 106.02673 89.572937 140.46556 81.273166 169.97656 94.134766 L 411.17969 199.23242 L 141 0 L 472.83594 -0.796875 z " />
</svg>
