<svg xmlns="http://www.w3.org/2000/svg" width="1260" height="700" viewBox="0 0 1260 700">
  <path d="m 0,0 0,700 1260,0 0,-414.47461 -250.5605,199.17773 39.7793,1.42383 c 51.8298,1.855 94.5614,49.37277 95.4414,106.13477 0.75,47.833 -28.4715,86.96737 -68.6914,96.98437 -7.51,1.87 -15.3891,2.7246 -23.5391,2.4336 L 730.03125,680.14258 c -40.43,-1.446 -76.75634,-31.09513 -90.15234,-73.57813 -13.394,-42.481 -0.84543,-88.24526 31.14257,-113.57226 l 6.98829,-5.53321 -166.57618,73.28907 c -4.473,1.968 -9.03672,3.51806 -13.63671,4.66406 -40.05201,9.976 -83.51524,-10.62973 -105.49024,-51.92773 -24.498,-46.04001 -14.50778,-103.19651 23.24024,-132.9375 l 18.7539,-14.7754 -295.84766,119.92188 c -47.773,19.369 -102.79789,-8.2048 -122.875,-61.5918 -20.078,-53.387 2.38357,-112.36828 50.16797,-131.73828 L 784.53125,0 0,0 Z m 1158.082,0 c -0.2436,2.2454451 -4.5531,41.012477 -13.6523,56.847656 L 1260,5.5605469 1260,0 1158.082,0 Z" />
</svg>
