<svg xmlns="http://www.w3.org/2000/svg" width="1260" height="670" viewBox="0 0 1260 670">
  <path d="M -22.210938 -22.980469 L -22.210938 709.98047 L 1297.1152 709.98047 L 1297.1152 -22.980469 L -22.210938 -22.980469 z M 494.50586 19.871094 C 497.6873 19.819579 500.88581 19.985428 504.08203 20.378906 C 510.44503 21.161907 516.79953 22.845588 523.01953 25.492188 L 769.03125 130.16406 C 799.88325 143.29006 819.18555 177.01352 816.93555 213.85352 C 814.68455 250.69152 791.38619 282.36313 759.11719 292.45312 L 752.06836 294.6582 L 902.70898 287.44141 C 906.75398 287.24741 910.74553 287.40281 914.64453 287.88281 C 948.59553 292.06181 976.10475 320.90791 980.84375 359.37891 C 986.12775 402.26791 961.42663 443.51164 923.39062 455.30664 L 904.49219 461.16602 L 1168.9941 456.26953 C 1211.7141 455.47553 1246.0954 493.14825 1245.7754 540.40625 C 1245.4654 587.66525 1210.5757 626.61525 1167.8457 627.40625 L 307.58594 643.33398 C 268.71794 644.04898 236.094 612.75208 231.375 570.20508 C 227.84 538.33008 240.78984 507.55875 263.33984 489.21875 L 96.613281 497.20508 C 57.391481 499.07908 23.812334 468.20537 18.490234 425.35938 C 13.167634 382.51337 37.784878 341.26762 75.767578 329.39062 L 494.82422 198.35742 L 464.46484 185.43945 C 424.91884 168.61245 405.96967 119.16604 422.13867 74.998047 C 434.48723 41.265786 463.75193 20.36907 494.50586 19.871094 z " />
</svg>
