<svg width="516" height="707" viewBox="0 0 516 707" fill="none" xmlns="http://www.w3.org/2000/svg">
<path fill-rule="evenodd" clip-rule="evenodd" d="M410.704 443.869C432.043 459.769 461.508 458.232 481.529 441.709C484.693 439.097 487.625 436.109 490.247 432.759L516 399.864V707H0V0H422.607L80.4141 204.872C53.492 220.99 44.6173 255.225 60.5922 281.336C76.5679 307.449 111.344 315.551 138.266 299.432L238.211 239.596L89.5143 428.635C71.7073 451.272 73.9095 483.124 94.6245 502.547C115.338 521.969 147.923 522.734 170.237 504.322L515.727 219.228L400.759 366.082C381.54 390.631 385.993 425.458 410.704 443.869ZM516 75.0008V66.5245C515.087 67.9231 514.105 69.2932 513.053 70.6302L497.805 90.015L516 75.0008ZM516 6.21605V0H511.162C512.945 1.97911 514.558 4.05724 516 6.21605Z"/>
</svg>
