<svg width="924" height="705" viewBox="0 0 924 705" fill="none" xmlns="http://www.w3.org/2000/svg">
<path fill-rule="evenodd" clip-rule="evenodd" d="M354.505 550.581C367.466 557.087 381.461 558.154 394.05 554.648C408.993 550.487 421.955 539.881 428.857 524.276C441.576 495.521 428.907 460.676 400.561 446.45L340.623 416.368L839.447 367.232C842.597 366.922 845.655 366.345 848.604 365.523C872.208 358.949 888.757 336.728 888.265 310.468C887.711 280.927 865.771 255.685 837.284 251.815L655.638 227.134L922.534 208.625C923.025 208.591 923.514 208.55 924 208.503V705H0V0H462.65L340.553 11.2102C312.175 13.8175 291.013 38.0849 291.372 67.6127C291.732 97.1412 313.496 122.525 341.955 126.605L368.045 130.346L81.2572 150.235C52.5045 152.23 30.717 176.481 30.873 206.32C31.0299 236.16 53.0774 261.872 81.8636 265.783L333.399 299.959L129.694 320.024C104.77 322.477 85.0778 341.785 81.4535 367.318C77.8279 392.849 91.1519 418.406 114.091 429.919L354.505 550.581ZM769.939 0C776.119 8.27016 780.315 18.2548 781.655 29.2224C783.592 45.0728 779.197 60.0006 770.518 71.3652L922.332 93.1333C922.891 93.2134 923.447 93.3017 924 93.398V0H769.939Z" />
</svg>
