<svg xmlns="http://www.w3.org/2000/svg"
   width="480"
   height="470"
   viewBox="0 0 480 470">
  <path fill="#79c1ed"
     d="m -2.440678,377.25477 0,96.40625 485.695318,0 0,-96.40625 -27.49219,0 c -5.83577,2.63957 -12.48737,3.34216 -18.90039,1.74023 -1.67888,-0.41948 -3.33737,-1.00205 -4.96289,-1.74023 l -46.43164,0 c 9.01168,9.13495 11.05475,23.36688 4.46875,34.79492 -6.533,11.335 -19.70144,16.69519 -32.02344,13.61719 -1.539,-0.385 -3.06545,-0.90169 -4.56445,-1.55469 l -107.53516,-46.85742 -108.0625,0 c -2.09038,4.4912 -5.35554,8.50489 -9.7168,11.53125 -7.123,4.942 -15.68778,6.23806 -23.48828,4.28906 -6.571798,-1.642 -12.601225,-5.5857 -16.765624,-11.5957 l -2.927735,-4.22461 -87.292969,0 z" />
  <path fill="#ffd567"
     d="m -1.2199749,-2.2706237 0,381.9648437 87.7636719,0 -76.003906,-109.68359 c -7.3699103,-10.636 -6.7975265,-24.86999 1.402344,-34.86719 8.19977,-9.9983 22.034225,-13.33166 33.890625,-8.16406 l 96.90625,42.22656 -104.496094,-77.3125 c -11.9586,-8.848 -15.274622,-25.32527 -7.669922,-38.10547 7.6049,-12.77982 23.654388,-17.70045 37.117188,-11.38281 l 134.279298,63.01758 -10.78711,-8.10352 c -11.767,-8.8382 -15.04142,-25.10308 -7.60742,-37.80078 7.433,-12.69736 23.20525,-17.78308 36.65625,-11.82031 l 179.27734,79.48437 c 14.61,6.4774 21.21491,23.57927 14.75391,38.19727 -3.205,7.251 -9.02347,12.52879 -15.85547,15.21679 l 62.77539,47.14844 c 11.862,8.91 15.07727,25.35036 7.44727,38.06836 -4.86343,8.10619 -13.13212,13.00934 -21.96485,13.88086 l 36.58985,0 0,-381.9648437 -484.4746149,0 z M 306.60034,318.4618 l 75.46289,55.83203 c 2.13206,1.57751 3.98427,3.40077 5.55469,5.40039 l 53.34375,0 c -1.37122,-0.13742 -2.74047,-0.35971 -4.09961,-0.69922 -1.793,-0.448 -3.56392,-1.07472 -5.29492,-1.88672 L 306.60034,318.4618 Z m -190.54883,2.25 19.25586,27.78906 c 6.64045,9.58334 6.70085,21.7655 1.16211,31.19336 l 114.94336,0 -135.36133,-58.98242 z"  />
</svg>
