<svg xmlns="http://www.w3.org/2000/svg"
   width="1100"
   height="1200"
   viewBox="0 0 1100 1200">
  <path
     d="M -9.5429688 -11.880859 L -9.5429688 1211.9277 L 1126 1211.9277 L 1126 -11.880859 L -9.5429688 -11.880859 z M 340.94141 396.4082 C 369.08076 396.09514 397.15256 411.6973 414.03516 438.20117 C 434.04316 469.61317 433.83458 509.27681 413.51758 536.63281 L 409.07812 542.60938 L 527.57617 447.46875 C 530.75717 444.91375 534.10145 442.67581 537.56445 440.75781 C 567.71345 424.05581 607.23911 431.31106 633.91211 459.91406 C 663.64911 491.80306 667.97089 540.1143 643.96289 572.2793 L 632.03516 588.25977 L 844.71289 427.55469 C 879.05489 401.59969 929.41673 411.98772 957.17773 450.76172 C 984.94073 489.53672 979.59709 542.01175 945.24609 567.96875 L 253.55078 1090.6406 C 222.29478 1114.2506 177.14917 1108.0201 148.07617 1076.0801 C 126.29517 1052.1491 118.60342 1019.3516 126.10742 991.01758 L -1 1094 L -1 808.78711 L 142.31641 616.38477 L 109.91211 623.82422 C 67.705009 633.51422 22.943654 604.36761 9.9335938 558.72461 C -1.0301862 520.26061 14.058484 482.35208 44.333984 465.58008 C 49.984484 462.45008 56.162081 460.05916 62.800781 458.53516 L 325.37109 398.25195 C 330.51609 397.07055 335.73041 396.46618 340.94141 396.4082 z " />
</svg>
