<svg
   xmlns="http://www.w3.org/2000/svg"
   width="962"
   height="550"
   viewBox="0 0 962 550">
  <path
     d="M -57.283203 -64.003906 L -57.283203 610.86328 L 1016.7754 610.86328 L 1016.7754 -64.003906 L -57.283203 -64.003906 z M 238.59961 12.640625 C 242.24522 12.597619 245.93519 12.924312 249.63281 13.648438 L 904.31055 141.94922 C 936.82255 148.32022 958.2148 182.8597 952.0918 219.0957 C 945.9678 255.3307 914.64077 279.54292 882.13477 273.16992 L 680.83984 233.7207 L 694.47852 240.75977 C 721.93152 254.92677 735.23483 289.84647 725.42383 321.98047 C 716.62283 350.80347 691.73109 369.18278 665.24609 367.80078 C 662.20509 367.64278 659.13817 367.22234 656.07617 366.52734 L 542.03125 340.67188 L 547.11719 343.31055 C 570.39619 355.39255 583.91783 382.79455 580.67383 411.31055 C 577.42883 439.82755 558.14822 463.0485 532.82422 468.9375 C 532.82422 468.9375 450.75761 488.02341 409.72461 497.56641 C 383.44661 503.67741 330.89062 515.90039 330.89062 515.90039 C 325.78563 517.08739 320.70619 517.51681 315.74219 517.25781 C 289.14619 515.87181 265.92516 494.71414 260.53516 464.36914 C 254.13916 428.36014 275.26752 393.05 307.72852 385.5 L 332.64844 379.70508 L 30.345703 222.79688 C 2.9452031 208.57488 -10.294692 173.66336 -0.45898438 141.56836 C 9.3761876 109.47336 39.173187 90.361744 68.867188 97.089844 L 195.08984 125.70703 C 180.34284 108.61803 174.60075 83.305394 181.59375 59.371094 C 189.761 31.416506 213.08033 12.94167 238.59961 12.640625 z " />

</svg>
