<svg width="26" height="26" viewBox="0 0 26 26" fill="none" xmlns="http://www.w3.org/2000/svg">
<path d="M14.625 10.1562L12.9609 18H10.2422L11.9062 10.1562H14.625ZM12.1562 8.01562C12.1562 7.59896 12.3203 7.22656 12.6484 6.89844C12.9818 6.5651 13.3854 6.39844 13.8594 6.39844C14.276 6.39844 14.6146 6.52344 14.875 6.77344C15.1354 7.02344 15.2656 7.32552 15.2656 7.67969C15.2656 8.10677 15.0964 8.48177 14.7578 8.80469C14.4245 9.1224 14.0339 9.28125 13.5859 9.28125C13.1589 9.28125 12.8125 9.16146 12.5469 8.92188C12.2865 8.68229 12.1562 8.38021 12.1562 8.01562Z" fill="white"/>
</svg>
