<svg viewBox="-1.5 -3 16 16" xmlns="http://www.w3.org/2000/svg">
<path d="M13 1.18316C12.5215 1.38393 12.0081 1.5201 11.4687 1.58089C12.0195 1.26855 12.4411 0.773135 12.6409 0.184624C12.1243 0.47387 11.554 0.683901 10.9464 0.797757C10.4598 0.306184 9.76765 0 8.99997 0C7.52718 0 6.33303 1.13086 6.33303 2.52481C6.33303 2.72251 6.35659 2.9156 6.40209 3.10024C4.18601 2.99484 2.22094 1.98938 0.905753 0.46156C0.675852 0.833905 0.545066 1.26776 0.545066 1.73089C0.545066 2.60712 1.01623 3.38026 1.73111 3.83258C1.29405 3.81874 0.883003 3.70489 0.523145 3.51564V3.54718C0.523145 4.77035 1.44273 5.79119 2.66205 6.02353C2.43865 6.08046 2.20308 6.112 1.95937 6.112C1.78716 6.112 1.62063 6.09584 1.45734 6.06507C1.79689 7.06899 2.78147 7.79904 3.94801 7.81905C3.03574 8.49603 1.88545 8.89837 0.636066 8.89837C0.420801 8.89837 0.208765 8.88606 0 8.86375C1.18035 9.58151 2.58165 10 4.08774 10C8.99351 10 11.6751 6.15201 11.6751 2.81484L11.6661 2.4879C12.1901 2.134 12.6434 1.68935 13 1.18316Z" fill="black"/>
</svg>
