<svg
   xmlns="http://www.w3.org/2000/svg"
   width="874.57184"
   height="569.29388"
   viewBox="0 0 874.57184 569.29388">
  <path
     d="m 271.02872,563.46461 c 6.8976,-3.514 13.1354,-8.588 18.1475,-15.147 l 123.9323,-162.16 c 11.082,-14.501 13.899,-33.528 7.747,-50.424 l 172.454,-37.47 c 25.267,-5.489 42.975,-28.291 41.996,-54.071 -0.98,-25.779 -20.366,-47.09 -45.972,-50.538 l -169.899,-22.87 410.132,-65.135 c 29.052,-4.612 48.91,-31.854099 44.355,-60.844499 -4.556,-28.9899 -31.799,-48.7502099 -60.851,-44.13674488 L 44.996516,122.64961 c -26.097,4.146 -45.24899951,26.756 -44.99399951,53.124 0.253,26.368 19.83699951,48.519 46.00799951,52.042 l 229.117804,30.841 -165.599,35.981 c -26.298804,5.709 -44.238804,30.1 -41.818804,56.837 2.42,26.738 24.442,47.429 51.327604,48.225 l 146.6073,4.344 -61.07905,79.919 c -17.85625,23.364 -13.39075,56.711 9.97332,74.482 16.80583,12.783 38.81343,14.024 56.48903,5.02 z" fill="#ffd567" />
</svg>
