<svg width="922" height="508" viewBox="0 0 922 508" fill="none" xmlns="http://www.w3.org/2000/svg">
<path fill-rule="evenodd" clip-rule="evenodd" d="M335.754 449.796L464.312 281.691C475.808 266.659 478.736 246.939 472.364 229.431L651.182 190.532C677.382 184.833 695.751 161.195 694.745 134.479C693.74 107.762 673.648 85.6835 647.1 82.1207L470.954 58.4843L840.786 -0.410583L140.279 -0.410585L82.7461 8.74331C55.687 13.0494 35.8209 36.4895 36.0747 63.8164C36.3277 91.1429 56.6235 114.092 83.7569 117.733L321.3 149.607L149.589 186.96C122.32 192.887 103.71 218.171 106.208 245.88C108.707 273.589 131.532 295.024 159.408 295.839L311.412 300.284L248.053 383.133C229.53 407.353 234.147 441.911 258.365 460.32C275.785 473.561 298.602 474.839 316.932 465.5C324.085 461.855 330.554 456.595 335.754 449.796Z" fill="#FFD567"/>
</svg>
