<svg width="617" height="655" viewBox="0 0 617 655" fill="none" xmlns="http://www.w3.org/2000/svg">
<path fill-rule="evenodd" clip-rule="evenodd" d="M554.134 352.296L450.475 562.071C440.585 582.086 418.616 593.129 396.664 589.121C374.71 585.114 358.102 567.03 355.985 544.819L338.661 363.298L309.366 585.621C306.013 611.064 283.914 629.849 258.259 629.066C232.603 628.283 211.745 608.186 210.02 582.59L192.819 327.292L189.612 350.346C186.114 375.492 164.297 394.037 138.909 393.444C113.522 392.851 92.6501 373.308 90.3984 348.026L60.4085 11.0678C60.1251 7.8828 60.4517 -0.78875 60.4517 -0.78875L270.865 -0.788749L275.935 74.8819L285.906 -0.788781L404.348 -0.788775L438.745 360.479L464.588 308.179C476.809 283.446 506.763 273.272 531.491 285.454C544.911 292.066 554.034 303.905 557.617 317.303C560.636 328.592 559.723 340.987 554.134 352.296Z" fill="#7BDBD3"/>
</svg>
