<svg xmlns="http://www.w3.org/2000/svg"
   width="617"
   height="655"
   viewBox="0 0 617 655">
  <path
     d="M -19.625 -37.769531 L -19.625 687.38086 L 659.40625 687.38086 L 659.40625 -37.769531 L -19.625 -37.769531 z M 60.451172 -0.7890625 L 270.86523 -0.7890625 L 275.93555 74.882812 L 285.90625 -0.7890625 L 404.34766 -0.7890625 L 438.74414 360.47852 L 464.58789 308.17969 C 476.80889 283.44669 506.76223 273.27112 531.49023 285.45312 C 544.91023 292.06512 554.03419 303.90473 557.61719 317.30273 C 560.63619 328.59173 559.72377 340.98788 554.13477 352.29688 L 450.47461 562.07031 C 440.58461 582.08531 418.61606 593.12909 396.66406 589.12109 C 374.71006 585.11409 358.10138 567.02936 355.98438 544.81836 L 338.66016 363.29883 L 309.36523 585.62109 C 306.01223 611.06409 283.91477 629.84941 258.25977 629.06641 C 232.60377 628.28341 211.74453 608.18584 210.01953 582.58984 L 192.81836 327.29297 L 189.61133 350.3457 C 186.11333 375.4917 164.2962 394.03636 138.9082 393.44336 C 113.5212 392.85036 92.650138 373.30739 90.398438 348.02539 L 60.408203 11.068359 C 60.124803 7.8833594 60.451172 -0.7890625 60.451172 -0.7890625 z "/>
</svg>
