<svg width="19" height="19" viewBox="0 0 19 19" fill="none" xmlns="http://www.w3.org/2000/svg">
<path opacity="0.4" d="M14.7148 14.5195C16.082 13.1602 16.7656 11.5195 16.7656 9.59766C16.7656 7.67578 16.082 6.03516 14.7148 4.67578C13.3555 3.31641 11.7148 2.63672 9.79297 2.63672C7.87891 2.63672 6.24219 3.31641 4.88281 4.67578C3.52344 6.03516 2.84375 7.67578 2.84375 9.59766C2.84375 11.5195 3.52344 13.1602 4.88281 14.5195C6.24219 15.8789 7.87891 16.5586 9.79297 16.5586C11.7148 16.5586 13.3555 15.8789 14.7148 14.5195ZM16.1211 3.46875C17.8242 5.14062 18.6758 7.18359 18.6758 9.59766C18.6758 12.0117 17.8242 14.0547 16.1211 15.7266C14.418 17.3984 12.3086 18.2344 9.79297 18.2344C7.28516 18.2344 5.17969 17.3984 3.47656 15.7266C1.77344 14.0547 0.921875 12.0117 0.921875 9.59766C0.921875 7.18359 1.77344 5.14062 3.47656 3.46875C5.17969 1.79687 7.28516 0.960938 9.79297 0.960938C12.3086 0.960938 14.418 1.79687 16.1211 3.46875ZM7.89453 7.57031C7.32422 8.14062 7.03906 8.82031 7.03906 9.60938C7.03906 10.3906 7.32031 11.0664 7.88281 11.6367C8.45312 12.1992 9.13281 12.4805 9.92188 12.4805C10.4141 12.4805 10.8711 12.3633 11.293 12.1289C11.7227 11.8867 12.0234 11.6445 12.1953 11.4023L12.4414 11.0391L13.6367 12.2344C13.6055 12.2812 13.5586 12.3516 13.4961 12.4453C13.4336 12.5312 13.2852 12.6875 13.0508 12.9141C12.8164 13.1328 12.5664 13.3281 12.3008 13.5C12.043 13.6719 11.6953 13.8242 11.2578 13.957C10.8281 14.0898 10.3828 14.1562 9.92188 14.1562C8.60938 14.1562 7.5 13.7148 6.59375 12.832C5.6875 11.9414 5.23438 10.8633 5.23438 9.59766C5.23438 8.33203 5.6875 7.25781 6.59375 6.375C7.5 5.48438 8.60938 5.03906 9.92188 5.03906C10.6719 5.03906 11.3477 5.19141 11.9492 5.49609C12.5508 5.80078 12.9609 6.09766 13.1797 6.38672L13.5195 6.84375L12.3242 8.03906C12.2773 7.94531 12.1953 7.82812 12.0781 7.6875C11.9688 7.53906 11.7031 7.33984 11.2812 7.08984C10.8672 6.83984 10.4141 6.71484 9.92188 6.71484C9.14062 6.71484 8.46484 7 7.89453 7.57031Z" fill="black"/>
</svg>
