<svg width="56" height="38" viewBox="0 0 56 38" fill="none" xmlns="http://www.w3.org/2000/svg">
<path fill-rule="evenodd" clip-rule="evenodd" d="M27.1217 1.05937C7.16341 1.91893 1.06407 7.74901 1.00094 19.197C0.937811 30.645 7.16341 37 26.9235 37C46.6836 37 54.56 32.4104 54.9846 20.5894C55.4092 8.76851 47.08 0.199816 27.1217 1.05937Z" stroke="white" stroke-width="2"/>
<path d="M30.7364 13.0025L29.0574 13C27.1711 13 25.9521 14.1591 25.9521 15.9532V17.3148H24.264C24.1181 17.3148 24 17.4245 24 17.5597V19.5325C24 19.6677 24.1183 19.7772 24.264 19.7772H25.9521V24.7553C25.9521 24.8905 26.0703 25 26.2161 25H28.4187C28.5646 25 28.6827 24.8904 28.6827 24.7553V19.7772H30.6565C30.8024 19.7772 30.9205 19.6677 30.9205 19.5325L30.9213 17.5597C30.9213 17.4947 30.8935 17.4326 30.844 17.3866C30.7946 17.3407 30.7272 17.3148 30.6572 17.3148H28.6827V16.1606C28.6827 15.6058 28.8253 15.3241 29.6051 15.3241L30.7361 15.3238C30.8819 15.3238 31 15.2142 31 15.0791V13.2472C31 13.1122 30.882 13.0027 30.7364 13.0025Z" fill="white"/>
</svg>
