<svg width="1299" height="800" viewBox="0 0 1299 800" fill="none" xmlns="http://www.w3.org/2000/svg">
<path fill-rule="evenodd" clip-rule="evenodd" d="M1092.31 691.679L769.911 680.142C729.481 678.696 693.155 649.048 679.759 606.565C666.365 564.084 678.913 518.32 710.901 492.993L717.89 487.459L551.314 560.748C546.841 562.716 542.278 564.267 537.678 565.413C497.626 575.389 454.162 554.783 432.187 513.485C407.689 467.445 417.68 410.288 455.428 380.547L474.181 365.771L178.334 485.694C130.561 505.063 75.5362 477.488 55.4591 424.101C35.3811 370.714 57.8416 311.734 105.626 292.364L825.43 -0.414069L1198.01 -0.414079C1198.01 -0.414079 1193.68 40.5413 1184.31 56.8477L1299.88 5.5611L1299.32 285.97L1049.32 484.703L1089.1 486.127C1140.93 487.982 1183.66 535.5 1184.54 592.262C1185.29 640.095 1156.07 679.23 1115.85 689.247C1108.34 691.117 1100.46 691.97 1092.31 691.679Z" fill="#FFD567"/>
</svg>
