<svg width="261" height="40" viewBox="0 0 261 40" fill="none" xmlns="http://www.w3.org/2000/svg">
<path fill-rule="evenodd" clip-rule="evenodd" d="M60.5869 5.64307V15.0898H58.6494V11.1393L58.7694 8.15086L54.1059 15.0898H51.8257V5.64307H53.763V9.59357L53.643 12.5651L58.3065 5.64307H60.5869Z" fill="black"/>
<path fill-rule="evenodd" clip-rule="evenodd" d="M72.1078 5.64307V15.0898H70.1705V11.1909H65.1639V15.0898H63.2266V5.64307H65.1639V9.35312H70.1705V5.64307H72.1078Z" fill="black"/>
<path fill-rule="evenodd" clip-rule="evenodd" d="M82.1197 7.46386H79.0508V15.0901H77.1133V7.46386H74.0271V5.64307H79.0508H82.1197V7.46386Z" fill="black"/>
<path fill-rule="evenodd" clip-rule="evenodd" d="M84.9309 9.31882H90.4173C90.1259 8.03046 89.1486 7.12018 87.7256 7.12018C86.251 7.12018 85.2566 8.04763 84.9309 9.31882M92.492 10.8989H84.828C84.9823 12.6336 86.1996 13.5957 87.7771 13.5957C88.9086 13.5957 89.8515 13.1148 90.2973 12.1871H92.3034C91.5662 14.2998 89.7658 15.296 87.7599 15.296C84.8966 15.296 82.8562 13.235 82.8562 10.3837C82.8562 7.53238 84.8795 5.43701 87.7256 5.43701C90.7602 5.43701 92.6806 7.79001 92.492 10.8989" fill="black"/>
<path fill-rule="evenodd" clip-rule="evenodd" d="M100.704 7.46386H96.3662V15.0901H94.4287V5.64307H100.704V7.46386Z" fill="black"/>
<path fill-rule="evenodd" clip-rule="evenodd" d="M110.356 10.3665C110.356 8.56311 109.19 7.29193 107.544 7.29193C105.898 7.29193 104.646 8.56311 104.646 10.3665C104.646 12.1871 105.898 13.4409 107.544 13.4409C109.173 13.4409 110.356 12.1871 110.356 10.3665M112.31 10.3665C112.31 13.2522 110.476 15.296 107.956 15.296C106.481 15.296 105.35 14.5746 104.664 13.5098V19.3839H102.726V5.64311H104.664V7.25758C105.35 6.17554 106.481 5.43701 107.973 5.43701C110.442 5.43701 112.31 7.48085 112.31 10.3665" fill="black"/>
<path fill-rule="evenodd" clip-rule="evenodd" d="M121.328 10.3665C121.328 8.56311 120.077 7.29193 118.431 7.29193C116.785 7.29193 115.619 8.56311 115.619 10.3665C115.619 12.1871 116.802 13.4409 118.431 13.4409C120.077 13.4409 121.328 12.1871 121.328 10.3665V10.3665ZM123.248 5.64311V15.0899H121.311V13.5098C120.625 14.5918 119.494 15.296 118.019 15.296C115.499 15.296 113.664 13.2522 113.664 10.3665C113.664 7.48085 115.533 5.43701 118.002 5.43701C119.494 5.43701 120.625 6.17554 121.311 7.25758V5.64311H123.248Z" fill="black"/>
<path fill-rule="evenodd" clip-rule="evenodd" d="M132.935 7.46386H129.866V15.0901H127.928V7.46386H124.842V5.64307H129.866H132.935V7.46386Z" fill="black"/>
<path fill-rule="evenodd" clip-rule="evenodd" d="M135.626 10.3665C135.626 12.1871 136.912 13.4409 138.558 13.4409C140.204 13.4409 141.49 12.1871 141.49 10.3665C141.49 8.54571 140.187 7.29193 138.558 7.29193C136.929 7.29193 135.626 8.54571 135.626 10.3665M143.444 10.3665C143.444 13.2006 141.301 15.296 138.558 15.296C135.832 15.296 133.671 13.1832 133.671 10.3665C133.671 7.5152 135.866 5.43701 138.558 5.43701C141.267 5.43701 143.444 7.5152 143.444 10.3665" fill="black"/>
<path fill-rule="evenodd" clip-rule="evenodd" d="M152.805 10.3665C152.805 8.56311 151.639 7.29193 149.993 7.29193C148.347 7.29193 147.095 8.56311 147.095 10.3665C147.095 12.1871 148.347 13.4409 149.993 13.4409C151.622 13.4409 152.805 12.1871 152.805 10.3665M154.759 10.3665C154.759 13.2522 152.925 15.296 150.404 15.296C148.93 15.296 147.798 14.5746 147.113 13.5098V19.3839H145.175V5.64311H147.113V7.25758C147.798 6.17554 148.93 5.43701 150.422 5.43701C152.89 5.43701 154.759 7.48085 154.759 10.3665" fill="black"/>
<path fill-rule="evenodd" clip-rule="evenodd" d="M161.651 10.3665C161.651 7.54955 163.742 5.43701 166.554 5.43701C168.783 5.43701 170.755 6.79385 171.183 9.07814H169.177C168.817 7.89306 167.772 7.2404 166.554 7.2404C164.805 7.2404 163.605 8.54571 163.605 10.3665C163.605 12.2042 164.84 13.4926 166.537 13.4926C167.772 13.4926 168.817 12.8054 169.177 11.6375H171.183C170.738 13.9733 168.749 15.296 166.537 15.296C163.742 15.296 161.651 13.1832 161.651 10.3665" fill="black"/>
<path fill-rule="evenodd" clip-rule="evenodd" d="M174.32 10.3665C174.32 12.1871 175.606 13.4409 177.252 13.4409C178.898 13.4409 180.184 12.1871 180.184 10.3665C180.184 8.54571 178.881 7.29193 177.252 7.29193C175.623 7.29193 174.32 8.54571 174.32 10.3665M182.138 10.3665C182.138 13.2006 179.995 15.296 177.252 15.296C174.526 15.296 172.366 13.1832 172.366 10.3665C172.366 7.5152 174.56 5.43701 177.252 5.43701C179.961 5.43701 182.138 7.5152 182.138 10.3665" fill="black"/>
<path fill-rule="evenodd" clip-rule="evenodd" d="M185.43 10.3665C185.43 12.1871 186.716 13.4409 188.362 13.4409C190.008 13.4409 191.293 12.1871 191.293 10.3665C191.293 8.54571 189.99 7.29193 188.362 7.29193C186.733 7.29193 185.43 8.54571 185.43 10.3665M193.248 10.3665C193.248 13.2006 191.105 15.296 188.362 15.296C185.636 15.296 183.475 13.1832 183.475 10.3665C183.475 7.5152 185.67 5.43701 188.362 5.43701C191.07 5.43701 193.248 7.5152 193.248 10.3665" fill="black"/>
<path fill-rule="evenodd" clip-rule="evenodd" d="M202.352 10.521C202.352 8.71764 201.134 7.53233 199.523 7.53233C197.928 7.53233 196.539 8.70046 196.539 10.521C196.539 12.4105 197.791 13.6128 199.42 13.6128C201.049 13.6128 202.352 12.4105 202.352 10.521M204.289 10.418C204.289 13.3552 202.197 15.2959 199.506 15.2959C196.865 15.2959 194.602 13.4926 194.585 9.52487C194.585 2.80916 197.877 1.6582 203.106 1.6582V3.49617C198.82 3.49617 196.831 4.166 196.557 7.84171C197.242 6.53617 198.597 5.86634 200.02 5.86634C202.42 5.86634 204.289 7.66973 204.289 10.418" fill="black"/>
<path fill-rule="evenodd" clip-rule="evenodd" d="M220.662 13.2693V17.5461H218.725V15.0901H213.581H208.214H206.277V5.64307H208.214V13.2693H211.643V5.64307H213.581V13.2693H217.01V5.64307H218.947V13.2693H220.662Z" fill="black"/>
<path fill-rule="evenodd" clip-rule="evenodd" d="M223.816 9.31882H229.302C229.011 8.03046 228.033 7.12018 226.61 7.12018C225.136 7.12018 224.141 8.04763 223.816 9.31882M231.377 10.8989H223.713C223.867 12.6336 225.084 13.5957 226.662 13.5957C227.793 13.5957 228.736 13.1148 229.182 12.1871H231.188C230.451 14.2998 228.651 15.296 226.645 15.296C223.782 15.296 221.741 13.235 221.741 10.3837C221.741 7.53238 223.764 5.43701 226.61 5.43701C229.645 5.43701 231.565 7.79001 231.377 10.8989" fill="black"/>
<path fill-rule="evenodd" clip-rule="evenodd" d="M232.662 10.3665C232.662 7.54955 234.754 5.43701 237.565 5.43701C239.794 5.43701 241.766 6.79385 242.195 9.07814H240.189C239.829 7.89306 238.783 7.2404 237.565 7.2404C235.817 7.2404 234.617 8.54571 234.617 10.3665C234.617 12.2042 235.851 13.4926 237.548 13.4926C238.783 13.4926 239.829 12.8054 240.189 11.6375H242.195C241.749 13.9733 239.76 15.296 237.548 15.296C234.754 15.296 232.662 13.1832 232.662 10.3665" fill="black"/>
<path fill-rule="evenodd" clip-rule="evenodd" d="M251.195 7.46386H248.127V15.0901H246.189V7.46386H243.103V5.64307H248.127H251.195V7.46386Z" fill="black"/>
<path fill-rule="evenodd" clip-rule="evenodd" d="M259.013 12.2214C259.013 11.4485 258.601 10.9504 257.453 10.9504H254.727V13.5613H257.47C258.67 13.5613 259.013 13.0117 259.013 12.2214M257.024 7.17165H254.727V9.54205H256.99C258.156 9.54205 258.55 9.06115 258.55 8.39109C258.55 7.63538 258.207 7.17165 257.024 7.17165M260.967 12.3759C260.967 14.1624 259.682 15.0898 257.59 15.0898H252.789V5.64307H257.178C259.219 5.64307 260.504 6.29572 260.504 8.03041C260.504 8.99222 259.99 9.55922 259.219 10.0227C260.384 10.3665 260.967 11.2252 260.967 12.3759" fill="black"/>
<path fill-rule="evenodd" clip-rule="evenodd" d="M58.2036 35.2029L53.763 30.8402V35.2029H51.8257V25.7559H53.763V29.844L57.8436 25.7559H60.3297L55.7174 30.239L60.7069 35.2029H58.2036Z" fill="black"/>
<path fill-rule="evenodd" clip-rule="evenodd" d="M70.0159 30.4795C70.0159 28.6761 68.8501 27.4049 67.204 27.4049C65.5582 27.4049 64.3064 28.6761 64.3064 30.4795C64.3064 32.3001 65.5582 33.5539 67.204 33.5539C68.8327 33.5539 70.0159 32.3001 70.0159 30.4795M71.9704 30.4795C71.9704 33.3649 70.1359 35.4088 67.6155 35.4088C66.1411 35.4088 65.0095 34.6874 64.3238 33.6226V39.4967H62.3862V25.7559H64.3238V27.3704C65.0095 26.2883 66.1411 25.5498 67.6326 25.5498C70.1016 25.5498 71.9704 27.5936 71.9704 30.4795" fill="black"/>
<path fill-rule="evenodd" clip-rule="evenodd" d="M82.137 25.7559L75.896 39.4969H73.8216L76.3077 34.0004L72.5872 25.7559H74.6616L77.3364 31.905L80.0625 25.7559H82.137Z" fill="black"/>
<path fill-rule="evenodd" clip-rule="evenodd" d="M96.2128 35.2029L91.755 30.8402V35.2029H89.8177V30.8402L85.3599 35.2029H82.8738L87.8459 30.239L83.2338 25.7559H85.7371L89.8177 29.8612V25.7559H91.755V29.8612L95.8356 25.7559H98.3389L93.7266 30.239L98.6989 35.2029H96.2128Z" fill="black"/>
<path fill-rule="evenodd" clip-rule="evenodd" d="M106.67 35.2029L102.23 30.8402V35.2029H100.292V25.7559H102.23V29.844L106.31 25.7559H108.796L104.184 30.239L109.173 35.2029H106.67Z" fill="black"/>
<path fill-rule="evenodd" clip-rule="evenodd" d="M111.402 30.4795C111.402 32.3001 112.688 33.5539 114.334 33.5539C115.979 33.5539 117.266 32.3001 117.266 30.4795C117.266 28.6587 115.962 27.4049 114.334 27.4049C112.705 27.4049 111.402 28.6587 111.402 30.4795M119.22 30.4795C119.22 33.3134 117.077 35.4088 114.334 35.4088C111.607 35.4088 109.447 33.2962 109.447 30.4795C109.447 27.6282 111.642 25.5498 114.334 25.5498C117.042 25.5498 119.22 27.6282 119.22 30.4795" fill="black"/>
<path fill-rule="evenodd" clip-rule="evenodd" d="M127.432 32.3347C127.432 31.5618 127.021 31.0639 125.872 31.0639H123.146V33.6748H125.889C127.089 33.6748 127.432 33.1249 127.432 32.3347M125.443 27.2849H123.146V29.6556H125.409C126.575 29.6556 126.969 29.1744 126.969 28.5046C126.969 27.7487 126.626 27.2849 125.443 27.2849M129.387 32.4895C129.387 34.2759 128.101 35.2031 126.009 35.2031H121.208V25.7563H125.597C127.638 25.7563 128.924 26.409 128.924 28.1437C128.924 29.1057 128.409 29.6727 127.638 30.136C128.804 30.48 129.387 31.3385 129.387 32.4895" fill="black"/>
<path fill-rule="evenodd" clip-rule="evenodd" d="M132.883 30.4795C132.883 32.3001 134.169 33.5539 135.815 33.5539C137.461 33.5539 138.747 32.3001 138.747 30.4795C138.747 28.6587 137.444 27.4049 135.815 27.4049C134.186 27.4049 132.883 28.6587 132.883 30.4795M140.702 30.4795C140.702 33.3134 138.558 35.4088 135.815 35.4088C133.089 35.4088 130.929 33.2962 130.929 30.4795C130.929 27.6282 133.123 25.5498 135.815 25.5498C138.524 25.5498 140.702 27.6282 140.702 30.4795" fill="black"/>
<path fill-rule="evenodd" clip-rule="evenodd" d="M148.965 27.5767H144.627V35.2029H142.69V25.7559H148.965V27.5767Z" fill="black"/>
<path fill-rule="evenodd" clip-rule="evenodd" d="M151.999 30.4795C151.999 32.3001 153.285 33.5539 154.931 33.5539C156.577 33.5539 157.863 32.3001 157.863 30.4795C157.863 28.6587 156.56 27.4049 154.931 27.4049C153.302 27.4049 151.999 28.6587 151.999 30.4795M159.817 30.4795C159.817 33.3134 157.674 35.4088 154.931 35.4088C152.205 35.4088 150.044 33.2962 150.044 30.4795C150.044 27.6282 152.239 25.5498 154.931 25.5498C157.64 25.5498 159.817 27.6282 159.817 30.4795" fill="black"/>
<path fill-rule="evenodd" clip-rule="evenodd" d="M174.836 33.3821V27.5767H171.681L171.115 31.0804C170.944 32.1798 170.704 32.9012 170.378 33.3821H174.836ZM178.487 33.3821V37.6591H176.55V35.2029H168.561V37.6591H166.623V33.3821H168.269C168.698 33.056 168.972 32.3342 169.195 30.9947L170.035 25.7559H176.773V33.3821H178.487Z" fill="black"/>
<path fill-rule="evenodd" clip-rule="evenodd" d="M186.648 32.3347C186.648 31.5618 186.236 31.0639 185.088 31.0639H182.361V33.6748H185.105C186.305 33.6748 186.648 33.1249 186.648 32.3347M184.659 27.2849H182.361V29.6556H184.625C185.79 29.6556 186.185 29.1744 186.185 28.5046C186.185 27.7487 185.842 27.2849 184.659 27.2849M188.602 32.4895C188.602 34.2759 187.317 35.2031 185.225 35.2031H180.424V25.7563H184.813C186.853 25.7563 188.139 26.409 188.139 28.1437C188.139 29.1057 187.625 29.6727 186.853 30.136C188.019 30.48 188.602 31.3385 188.602 32.4895" fill="black"/>
<path fill-rule="evenodd" clip-rule="evenodd" d="M199.557 25.7559V35.2029H197.62V31.2524L197.74 28.2639L193.076 35.2029H190.796V25.7559H192.733V29.7064L192.613 32.6781L197.277 25.7559H199.557Z" fill="black"/>
<path fill-rule="evenodd" clip-rule="evenodd" d="M214.473 35.2029L210.015 30.8402V35.2029H208.078V30.8402L203.62 35.2029H201.134L206.106 30.239L201.494 25.7559H203.997L208.078 29.8612V25.7559H210.015V29.8612L214.096 25.7559H216.599L211.987 30.239L216.959 35.2029H214.473Z" fill="black"/>
<path fill-rule="evenodd" clip-rule="evenodd" d="M219.359 29.4318H224.845C224.554 28.1435 223.576 27.2332 222.153 27.2332C220.679 27.2332 219.684 28.1607 219.359 29.4318M226.92 31.012H219.256C219.41 32.7466 220.627 33.7087 222.205 33.7087C223.336 33.7087 224.279 33.2278 224.725 32.3001H226.731C225.994 34.4129 224.194 35.409 222.187 35.409C219.324 35.409 217.284 33.3478 217.284 30.4967C217.284 27.6456 219.307 25.5498 222.153 25.5498C225.188 25.5498 227.108 27.903 226.92 31.012" fill="black"/>
<path fill-rule="evenodd" clip-rule="evenodd" d="M237.737 25.7559V35.2029H235.8V31.3039H230.794V35.2029H228.856V25.7559H230.794V29.4661H235.8V25.7559H237.737Z" fill="black"/>
<path fill-rule="evenodd" clip-rule="evenodd" d="M249.138 25.7559V35.2029H247.201V31.2524L247.321 28.2639L242.657 35.2029H240.377V25.7559H242.314V29.7064L242.194 32.6781L246.858 25.7559H249.138Z" fill="black"/>
<path fill-rule="evenodd" clip-rule="evenodd" d="M257.762 30.1878V27.5084H255.07C253.87 27.5084 253.492 28.0924 253.492 28.8824C253.492 29.6556 253.972 30.1878 255.121 30.1878H257.762ZM259.699 25.7563V35.2031H257.762V31.785H255.893L253.441 35.2031H251.058L253.818 31.6479C252.515 31.3215 251.538 30.4969 251.538 28.9168C251.538 26.7353 253.029 25.7563 254.967 25.7563H259.699Z" fill="black"/>
<mask id="mask0" mask-type="alpha" maskUnits="userSpaceOnUse" x="0" y="0" width="40" height="40">
<path fill-rule="evenodd" clip-rule="evenodd" d="M0 0H39.9283V40H0V0Z" fill="white"/>
</mask>
<g mask="url(#mask0)">
<path fill-rule="evenodd" clip-rule="evenodd" d="M39.8755 18.8367C39.4995 16.8378 37.2624 16.2787 35.1428 15.9429C35.5087 14.5621 35.6889 13.3546 35.6907 12.2796C35.695 9.63801 34.9745 6.27123 33.2224 5.07236C31.5459 3.9257 29.5691 5.11508 27.8334 6.37926C27.1174 5.14332 26.3926 4.16186 25.6351 3.4005C23.7738 1.52977 20.8877 -0.340743 18.8027 0.0529296C16.8076 0.429427 16.2495 2.67078 15.9143 4.79417C14.5357 4.42739 13.3307 4.24705 12.2576 4.24525C9.62096 4.24095 6.25999 4.96276 5.0635 6.71824C3.91844 8.39756 5.10591 10.3777 6.3676 12.1167C5.13411 12.8339 4.1544 13.56 3.39441 14.3189C1.5268 16.1836 -0.340127 19.0749 0.0528398 21.1634C0.428887 23.1623 2.666 23.7214 4.78558 24.0572C4.41946 25.4378 4.23944 26.6455 4.23741 27.7205C4.23313 30.3621 4.95386 33.7289 6.70597 34.9277C8.38251 36.0744 10.3591 34.885 12.0949 33.6206C12.8109 34.8568 13.5357 35.8382 14.2932 36.5996C16.1545 38.4703 19.0406 40.3408 21.1257 39.9472C23.1205 39.5707 23.6789 37.3293 24.0141 35.2059C25.3926 35.5727 26.5979 35.753 27.6708 35.7549C30.3074 35.7591 33.6684 35.0373 34.8649 33.2816C36.0097 31.6025 34.8225 29.6224 33.5608 27.8834C34.7943 27.1661 35.774 26.44 36.534 25.6812C38.4013 23.8165 40.2683 20.9252 39.8755 18.8367M30.8506 20.9128C29.5271 23.539 28.9855 24.4961 30.2781 27.0778C28.9711 27.6484 27.9205 28.0597 27.0177 28.3569C24.2282 29.2767 23.1697 29.57 22.2613 32.3112C20.9346 31.7885 19.9015 31.3352 19.0531 30.9063C16.4315 29.5804 15.476 29.0378 12.8989 30.3327C12.3298 29.0231 11.919 27.9707 11.6219 27.0665C10.704 24.2717 10.4114 23.2113 7.6753 22.3015C8.19685 20.9723 8.64937 19.9372 9.07775 19.0873C10.4013 16.4611 10.9427 15.5038 9.65029 12.9223C10.9573 12.3517 12.0079 11.9404 12.9104 11.643C15.7 10.7234 16.7586 10.4301 17.6668 7.68886C18.9937 8.21157 20.0269 8.66491 20.8753 9.09383C23.4968 10.4197 24.4524 10.9623 27.0295 9.66739C27.5988 10.977 28.0094 12.0292 28.3063 12.9336C29.2242 15.7284 29.517 16.7887 32.2531 17.6986C31.7313 19.0278 31.279 20.0629 30.8506 20.9128M32.9594 9.19236C33.2075 10.0819 33.3573 11.1591 33.3555 12.2758C33.3541 13.1878 33.2817 14.4457 32.8955 15.4841C31.6124 15.1178 31.2808 14.4247 30.4572 12.1336C30.1062 11.1585 29.6602 9.94107 28.9945 8.32818C31.5923 6.42784 32.1876 6.42604 32.9594 9.19236M21.5248 3.15236C22.3278 3.60547 23.1943 4.26107 23.9811 5.05203C24.6241 5.69813 25.4605 6.63869 25.9205 7.64638C24.7547 8.29632 24.031 8.04118 21.8316 7.00479C20.8949 6.56366 19.7203 6.01881 18.111 5.3501C18.6068 2.16592 19.0264 1.74287 21.5248 3.15236M9.17588 6.98174C10.0638 6.73293 11.1391 6.58287 12.254 6.58468C13.1642 6.58604 14.4198 6.65858 15.4561 7.04547C15.0907 8.3309 14.3988 8.66287 12.1121 9.48818C11.1385 9.8396 9.92324 10.2866 8.31325 10.9537C6.41632 8.35101 6.41429 7.7544 9.17588 6.98174M3.14672 18.4367C3.59901 17.6319 4.25343 16.7641 5.04297 15.9756C5.68791 15.3318 6.62679 14.4938 7.63267 14.0333C8.28145 15.2012 8.02676 15.9259 6.99224 18.1293C6.5519 19.0676 6.00802 20.2443 5.34051 21.8565C2.16204 21.36 1.73975 20.9395 3.14672 18.4367M6.969 30.8077C6.72086 29.9182 6.57085 28.841 6.57288 27.7243C6.57423 26.8123 6.64664 25.5544 7.03284 24.516C8.31596 24.8821 8.64734 25.5754 9.47117 27.8665C9.82195 28.8416 10.2679 30.059 10.9341 31.6719C8.33604 33.5723 7.74072 33.5741 6.969 30.8077M18.4036 36.8477C17.6005 36.3946 16.7341 35.7388 15.947 34.9478C15.3043 34.302 14.4678 33.3614 14.0079 32.3537C15.1737 31.7038 15.8971 31.9589 18.0968 32.9953C19.0334 33.4364 20.208 33.9813 21.8174 34.65C21.3215 37.8342 20.9022 38.2572 18.4036 36.8477M30.7525 33.0184C29.8646 33.2672 28.7892 33.4172 27.6744 33.4154C26.7639 33.4141 25.5086 33.3415 24.4722 32.9546C24.8377 31.6692 25.5296 31.3372 27.8163 30.5119C28.7899 30.1605 30.0051 29.7135 31.6151 29.0464C33.512 31.6491 33.5141 32.2457 30.7525 33.0184M32.2957 25.9668C31.6469 24.7989 31.9016 24.0742 32.9361 21.8708C33.3765 20.9325 33.9204 19.7558 34.5879 18.1436C37.7663 18.64 38.1886 19.0606 36.7817 21.5634C36.3291 22.368 35.6749 23.236 34.8854 24.0245C34.2405 24.6683 33.3016 25.5063 32.2957 25.9668" fill="#12100B"/>
</g>
</svg>
