<svg width="56" height="38" viewBox="0 0 56 38" fill="none" xmlns="http://www.w3.org/2000/svg">
<path fill-rule="evenodd" clip-rule="evenodd" d="M27.1217 1.05937C7.16341 1.91893 1.06407 7.74901 1.00094 19.197C0.937811 30.645 7.16341 37 26.9235 37C46.6836 37 54.56 32.4104 54.9846 20.5894C55.4092 8.76851 47.08 0.199816 27.1217 1.05937Z" stroke="white" stroke-width="2"/>
<path fill-rule="evenodd" clip-rule="evenodd" d="M22 15C22 13.8954 22.8954 13 24 13H32C33.1046 13 34 13.8954 34 15V23C34 24.1046 33.1046 25 32 25H24C22.8954 25 22 24.1046 22 23V15ZM28 21C29.1046 21 30 20.1046 30 19C30 17.8954 29.1046 17 28 17C26.8954 17 26 17.8954 26 19C26 20.1046 26.8954 21 28 21ZM32 16C32 16.5523 31.5523 17 31 17C30.4477 17 30 16.5523 30 16C30 15.4477 30.4477 15 31 15C31.5523 15 32 15.4477 32 16Z" fill="white"/>
</svg>
