<svg width="754" height="559" viewBox="0 0 754 559" fill="none" xmlns="http://www.w3.org/2000/svg">
<path fill-rule="evenodd" clip-rule="evenodd" d="M580.075 539.068C574.29 537.41 568.776 534.463 563.978 530.202L445.331 424.854C434.721 415.434 429.747 401.335 431.933 387.534L294.77 384.501C274.673 384.057 257.775 369.285 254.695 349.473C251.615 329.661 263.246 310.53 282.274 304.106L408.531 261.484L85.8852 272.563C63.0308 273.35 43.8326 255.509 43.0055 232.717C42.1783 209.926 60.0344 190.814 82.889 190.029L687.122 169.281C707.652 168.577 725.624 182.989 729.344 203.142C733.065 223.296 721.409 243.096 701.96 249.662L531.697 307.139L663.408 310.052C684.325 310.511 701.636 326.46 703.758 347.216C705.881 367.973 692.147 387.021 671.749 391.612L560.516 416.649L618.991 468.569C636.085 483.748 637.628 509.849 622.437 526.869C611.51 539.111 594.9 543.319 580.075 539.068Z" fill="white"/>
</svg>
