<svg width="36" height="35" viewBox="0 0 36 35" fill="none" xmlns="http://www.w3.org/2000/svg">
<path fill-rule="evenodd" clip-rule="evenodd" d="M20.1863 6.62132C21.3579 5.44975 21.3579 3.55025 20.1863 2.37868C19.0148 1.20711 17.1153 1.20711 15.9437 2.37868C14.7721 3.55025 14.7721 5.44975 15.9437 6.62132C17.1153 7.79289 19.0148 7.79289 20.1863 6.62132Z" fill="black"/>
<path fill-rule="evenodd" clip-rule="evenodd" d="M20.1863 19.6213C21.3579 18.4497 21.3579 16.5503 20.1863 15.3787C19.0148 14.2071 17.1153 14.2071 15.9437 15.3787C14.7721 16.5503 14.7721 18.4497 15.9437 19.6213C17.1153 20.7929 19.0148 20.7929 20.1863 19.6213Z" fill="black"/>
<path fill-rule="evenodd" clip-rule="evenodd" d="M33.1863 19.6213C34.3579 18.4497 34.3579 16.5503 33.1863 15.3787C32.0148 14.2071 30.1153 14.2071 28.9437 15.3787C27.7721 16.5503 27.7721 18.4497 28.9437 19.6213C30.1153 20.7929 32.0148 20.7929 33.1863 19.6213Z" fill="black"/>
<path fill-rule="evenodd" clip-rule="evenodd" d="M7.18635 19.6213C8.35792 18.4497 8.35792 16.5503 7.18635 15.3787C6.01478 14.2071 4.11528 14.2071 2.94371 15.3787C1.77214 16.5503 1.77214 18.4497 2.94371 19.6213C4.11528 20.7929 6.01478 20.7929 7.18635 19.6213Z" fill="black"/>
<path fill-rule="evenodd" clip-rule="evenodd" d="M20.1863 32.6213C21.3579 31.4497 21.3579 29.5503 20.1863 28.3787C19.0148 27.2071 17.1153 27.2071 15.9437 28.3787C14.7721 29.5503 14.7721 31.4497 15.9437 32.6213C17.1153 33.7929 19.0148 33.7929 20.1863 32.6213Z" fill="black"/>
</svg>
