<svg width="65" height="62" viewBox="0 0 63 62" fill="none" xmlns="http://www.w3.org/2000/svg">
<path fill-rule="evenodd" clip-rule="evenodd" d="M45 1L45 20L63 19L45 1Z" fill="#FB809D"/>
<path fill-rule="evenodd" clip-rule="evenodd" d="M45 20V1L63 19L45 20ZM58.4228 17.2512L47 5.82843V17.8858L58.4228 17.2512Z" fill="black"/>
<path fill-rule="evenodd" clip-rule="evenodd" d="M63 53.8053V18.5862L45.1531 0.739258L0.46228 27.7616L29.6365 61.1036L63 53.8053ZM44.8469 3.26155L61 19.4146V52.1955L30.3635 58.8972L3.53772 28.2392L44.8469 3.26155Z" fill="black"/>
<path fill-rule="evenodd" clip-rule="evenodd" d="M32.2072 42.7149C34.4505 42.1556 36.33 43.2288 36.8893 45.4721C37.4651 47.7814 36.2228 49.6855 33.6826 50.3189L31.6372 50.8289L32.6448 54.8701L30.8798 55.3102L28.001 43.7637L32.2072 42.7149ZM33.3332 48.5663C34.6693 48.2332 35.2802 47.2399 34.9635 45.9698C34.6468 44.6997 33.6576 44.1754 32.3215 44.5086L30.1937 45.0391L31.2054 49.0969L33.3332 48.5663ZM49.4035 44.5596C48.5522 41.1451 45.5888 39.3785 42.1413 40.2381L37.5887 41.3732L40.4676 52.9197L44.8058 51.8381C48.4182 50.9374 50.2672 48.0235 49.4035 44.5596ZM44.3616 50.1267C46.8853 49.4975 48.0781 47.5356 47.4571 45.0449C46.8361 42.5541 44.8619 41.3819 42.3381 42.0111L39.7814 42.6486L41.8048 50.7642L44.3616 50.1267ZM57.2043 38.3046L56.7766 36.5891L49.7662 38.337L52.645 49.8835L54.41 49.4435L53.1844 44.5279L58.1164 43.2983L57.6887 41.5828L52.7567 42.8125L51.9589 39.6124L57.2043 38.3046Z" fill="black"/>
</svg>
