<svg width="55" height="57" viewBox="0 0 55 57" fill="none" xmlns="http://www.w3.org/2000/svg">
<path fill-rule="evenodd" clip-rule="evenodd" d="M10.335 5C12.647 5 14.211 6.496 14.211 8.808C14.211 11.188 12.545 12.735 9.927 12.735H7.819V16.9H6V5H10.335ZM10.012 10.95C11.389 10.95 12.222 10.134 12.222 8.825C12.222 7.516 11.389 6.768 10.012 6.768H7.819V10.95H10.012ZM26.5742 10.95C26.5742 7.431 24.1263 5 20.5732 5H15.8813V16.9H20.3523C24.0753 16.9 26.5742 14.52 26.5742 10.95ZM20.3352 15.132C22.9362 15.132 24.5682 13.517 24.5682 10.95C24.5682 8.383 22.9362 6.768 20.3352 6.768H17.7002V15.132H20.3352ZM35.6565 6.768V5H28.4315V16.9H30.2505V11.834H35.3335V10.066H30.2505V6.768H35.6565Z" fill="black"/>
<path fill-rule="evenodd" clip-rule="evenodd" d="M19 56L19 38H1L19 56Z" fill="#FFD567"/>
<path fill-rule="evenodd" clip-rule="evenodd" d="M19 38L19 56L1 38H19ZM17 40H5.82843L17 51.1716L17 40Z" fill="black"/>
<path d="M41.0721 2.13244L52.5593 34.6794L17.8355 54.5852L18.8302 56.3203L55 35.5855L42.4872 0.132442L0.779636 0.132442L0.779636 38.1324H2.77964L2.77964 2.13244L41.0721 2.13244Z" fill="black"/>
</svg>
