<svg width="41" height="36" viewBox="0 0 41 36" fill="none" xmlns="http://www.w3.org/2000/svg">
<path fill-rule="evenodd" clip-rule="evenodd" d="M38.8545 13.3232H26.8545V1.32324L38.8545 13.3232Z" fill="#FF937D" stroke="black" stroke-width="2" stroke-linejoin="round"/>
<path fill-rule="evenodd" clip-rule="evenodd" d="M26.8545 1.32324L2 1.64706L5.93103 27.5294L30.1724 34L38.8545 13.3232L26.8545 1.32324Z" stroke="black" stroke-width="2"/>
<path fill-rule="evenodd" clip-rule="evenodd" d="M14.6103 18.013C16.0592 18.3209 16.8302 19.513 16.5071 21.0333C16.1744 22.5984 14.9141 23.3937 13.2735 23.045L11.9525 22.7642L11.3704 25.503L10.2304 25.2607L11.8937 17.4355L14.6103 18.013ZM13.5763 21.8825C14.4392 22.066 15.0753 21.6403 15.2582 20.7796C15.4412 19.9188 15.0237 19.316 14.1608 19.1326L12.7865 18.8404L12.202 21.5904L13.5763 21.8825ZM23.9553 24.0887C24.4472 21.7747 23.2529 19.85 21.0263 19.3767L18.086 18.7518L16.4227 26.5769L19.2246 27.1725C21.5576 27.6684 23.4563 26.4362 23.9553 24.0887ZM19.461 26.0076C21.091 26.3541 22.3394 25.5095 22.6982 23.8215C23.057 22.1335 22.26 20.8541 20.6301 20.5076L18.9788 20.1566L17.8097 25.6566L19.461 26.0076ZM30.2314 22.5485L30.4785 21.3859L25.9509 20.4235L24.2876 28.2487L25.4275 28.491L26.1356 25.1597L29.3209 25.8367L29.568 24.6741L26.3827 23.9971L26.8437 21.8284L30.2314 22.5485Z" fill="black"/>
<path d="M11.9525 22.7642L11.9837 22.6175L11.837 22.5863L11.8058 22.733L11.9525 22.7642ZM11.3704 25.503L11.3392 25.6497L11.4859 25.6809L11.5171 25.5342L11.3704 25.503ZM10.2304 25.2607L10.0837 25.2295L10.0525 25.3763L10.1993 25.4074L10.2304 25.2607ZM11.8937 17.4355L11.9249 17.2888L11.7782 17.2576L11.747 17.4044L11.8937 17.4355ZM13.5763 21.8825L13.5451 22.0293L13.5763 21.8825ZM14.1608 19.1326L14.1296 19.2793L14.1608 19.1326ZM12.7865 18.8404L12.8177 18.6937L12.671 18.6625L12.6398 18.8093L12.7865 18.8404ZM12.202 21.5904L12.0553 21.5592L12.0241 21.706L12.1708 21.7372L12.202 21.5904ZM18.086 18.7518L18.1172 18.605L17.9705 18.5738L17.9393 18.7206L18.086 18.7518ZM16.4227 26.5769L16.276 26.5457L16.2448 26.6925L16.3915 26.7237L16.4227 26.5769ZM19.461 26.0076L19.4922 25.8609L19.461 26.0076ZM20.6301 20.5076L20.6613 20.3609L20.6301 20.5076ZM18.9788 20.1566L19.01 20.0099L18.8633 19.9787L18.8321 20.1255L18.9788 20.1566ZM17.8097 25.6566L17.663 25.6254L17.6318 25.7722L17.7786 25.8034L17.8097 25.6566ZM30.4785 21.3859L30.6253 21.4171L30.6565 21.2703L30.5097 21.2391L30.4785 21.3859ZM30.2314 22.5485L30.2002 22.6952L30.347 22.7264L30.3781 22.5797L30.2314 22.5485ZM25.9509 20.4235L25.982 20.2768L25.8353 20.2456L25.8041 20.3923L25.9509 20.4235ZM24.2876 28.2487L24.1408 28.2175L24.1097 28.3642L24.2564 28.3954L24.2876 28.2487ZM25.4275 28.491L25.3963 28.6377L25.543 28.6689L25.5742 28.5221L25.4275 28.491ZM26.1356 25.1597L26.1668 25.0129L26.02 24.9818L25.9888 25.1285L26.1356 25.1597ZM29.3209 25.8367L29.2897 25.9835L29.4365 26.0146L29.4676 25.8679L29.3209 25.8367ZM29.568 24.6741L29.7148 24.7053L29.7459 24.5586L29.5992 24.5274L29.568 24.6741ZM26.3827 23.9971L26.236 23.9659L26.2048 24.1126L26.3515 24.1438L26.3827 23.9971ZM26.8437 21.8284L26.8748 21.6817L26.7281 21.6505L26.6969 21.7972L26.8437 21.8284ZM16.6538 21.0645C16.8222 20.2723 16.7076 19.553 16.3499 18.9883C15.9921 18.4232 15.4001 18.0275 14.6415 17.8663L14.5792 18.1597C15.2695 18.3064 15.7874 18.6607 16.0965 19.1488C16.4058 19.6371 16.5151 20.274 16.3603 21.0021L16.6538 21.0645ZM13.2423 23.1917C14.0931 23.3726 14.8596 23.2593 15.4602 22.884C16.0615 22.5085 16.4803 21.8806 16.6538 21.0645L16.3603 21.0021C16.2012 21.7511 15.8235 22.3034 15.3013 22.6296C14.7785 22.9561 14.0945 23.0662 13.3047 22.8983L13.2423 23.1917ZM11.9213 22.9109L13.2423 23.1917L13.3047 22.8983L11.9837 22.6175L11.9213 22.9109ZM11.5171 25.5342L12.0992 22.7954L11.8058 22.733L11.2236 25.4718L11.5171 25.5342ZM10.1993 25.4074L11.3392 25.6497L11.4015 25.3563L10.2616 25.114L10.1993 25.4074ZM11.747 17.4044L10.0837 25.2295L10.3772 25.2919L12.0405 17.4667L11.747 17.4044ZM14.6415 17.8663L11.9249 17.2888L11.8626 17.5823L14.5792 18.1597L14.6415 17.8663ZM15.1115 20.7484C15.0264 21.149 14.8397 21.4325 14.5897 21.5974C14.34 21.7621 14.0081 21.821 13.6075 21.7358L13.5451 22.0293C14.0074 22.1275 14.425 22.0654 14.7548 21.8479C15.0843 21.6306 15.3072 21.2709 15.405 20.8108L15.1115 20.7484ZM14.1296 19.2793C14.5337 19.3652 14.8151 19.5449 14.9773 19.7858C15.139 20.0259 15.1966 20.348 15.1115 20.7484L15.405 20.8108C15.5028 20.3504 15.4432 19.9407 15.2262 19.6183C15.0096 19.2967 14.6508 19.0834 14.192 18.9858L14.1296 19.2793ZM12.7553 18.9872L14.1296 19.2793L14.192 18.9858L12.8177 18.6937L12.7553 18.9872ZM12.3487 21.6216L12.9333 18.8716L12.6398 18.8093L12.0553 21.5592L12.3487 21.6216ZM13.6075 21.7358L12.2332 21.4437L12.1708 21.7372L13.5451 22.0293L13.6075 21.7358ZM20.9952 19.5235C22.072 19.7524 22.8908 20.3296 23.3828 21.1216C23.8752 21.9141 24.0476 22.9333 23.8086 24.0575L24.1021 24.1199C24.355 22.93 24.1761 21.8299 23.6377 20.9633C23.0989 20.0961 22.2073 19.4744 21.0575 19.23L20.9952 19.5235ZM18.0548 18.8985L20.9952 19.5235L21.0575 19.23L18.1172 18.605L18.0548 18.8985ZM16.5694 26.6081L18.2327 18.7829L17.9393 18.7206L16.276 26.5457L16.5694 26.6081ZM19.2557 27.0258L16.4539 26.4302L16.3915 26.7237L19.1934 27.3192L19.2557 27.0258ZM23.8086 24.0575C23.5662 25.1979 22.9869 26.0562 22.1959 26.5712C21.4049 27.0861 20.3887 27.2666 19.2557 27.0258L19.1934 27.3192C20.3935 27.5743 21.4931 27.3867 22.3596 26.8226C23.226 26.2585 23.8455 25.327 24.1021 24.1199L23.8086 24.0575ZM22.5515 23.7903C22.3784 24.6047 21.9944 25.2004 21.4723 25.5532C20.951 25.9055 20.2745 26.0272 19.4922 25.8609L19.4298 26.1543C20.2775 26.3345 21.0402 26.2072 21.6403 25.8018C22.2396 25.3968 22.6593 24.7263 22.845 23.8527L22.5515 23.7903ZM20.5989 20.6544C21.3811 20.8206 21.9497 21.207 22.2827 21.7409C22.6161 22.2755 22.7246 22.9759 22.5515 23.7903L22.845 23.8527C23.0307 22.979 22.92 22.1958 22.5372 21.5821C22.1539 20.9677 21.509 20.5411 20.6613 20.3609L20.5989 20.6544ZM18.9476 20.3034L20.5989 20.6544L20.6613 20.3609L19.01 20.0099L18.9476 20.3034ZM17.9565 25.6878L19.1255 20.1878L18.8321 20.1255L17.663 25.6254L17.9565 25.6878ZM19.4922 25.8609L17.8409 25.5099L17.7786 25.8034L19.4298 26.1543L19.4922 25.8609ZM30.3318 21.3547L30.0847 22.5173L30.3781 22.5797L30.6253 21.4171L30.3318 21.3547ZM25.9197 20.5702L30.4474 21.5326L30.5097 21.2391L25.982 20.2768L25.9197 20.5702ZM24.4343 28.2798L26.0976 20.4547L25.8041 20.3923L24.1408 28.2175L24.4343 28.2798ZM25.4587 28.3442L24.3188 28.1019L24.2564 28.3954L25.3963 28.6377L25.4587 28.3442ZM25.9888 25.1285L25.2808 28.4598L25.5742 28.5221L26.2823 25.1909L25.9888 25.1285ZM29.3521 25.69L26.1668 25.0129L26.1044 25.3064L29.2897 25.9835L29.3521 25.69ZM29.4213 24.6429L29.1742 25.8055L29.4676 25.8679L29.7148 24.7053L29.4213 24.6429ZM26.3515 24.1438L29.5369 24.8209L29.5992 24.5274L26.4139 23.8503L26.3515 24.1438ZM26.6969 21.7972L26.236 23.9659L26.5294 24.0283L26.9904 21.8596L26.6969 21.7972ZM30.2626 22.4017L26.8748 21.6817L26.8125 21.9751L30.2002 22.6952L30.2626 22.4017Z" fill="black"/>
</svg>
