<svg width="1175" height="760" viewBox="0 0 1175 760" fill="none" xmlns="http://www.w3.org/2000/svg">
<path fill-rule="evenodd" clip-rule="evenodd" d="M807.643 692.676L658.943 498.233C645.646 480.845 642.26 458.035 649.63 437.784L277.094 375C246.789 368.408 225.542 341.066 226.705 310.164C227.869 279.262 251.108 253.724 281.816 249.603L501.945 240.053L159.374 161.79C124.531 156.249 100.704 123.584 106.155 88.8337C111.605 54.0844 144.268 30.409 179.111 35.9523L1100.29 182.519C1131.59 187.5 1154.57 214.612 1154.27 246.221C1153.98 277.829 1130.51 304.373 1099.12 308.585L909.084 345.453L1022.97 388.659C1054.52 395.515 1076.04 424.76 1073.15 456.811C1070.26 488.861 1043.86 513.654 1011.62 514.597L835.799 519.739L909.084 615.568C930.509 643.584 925.168 683.556 897.157 704.849C877.008 720.165 850.615 721.643 829.413 710.841C821.14 706.625 813.657 700.54 807.643 692.676Z" fill="white"/>
<mask id="mask0" mask-type="alpha" maskUnits="userSpaceOnUse" x="0" y="-244" width="1196" height="1004">
<path fill-rule="evenodd" clip-rule="evenodd" d="M807.643 692.676L658.943 498.233C645.646 480.845 642.26 458.035 649.63 437.784L277.094 375C246.789 368.408 225.542 341.066 226.705 310.164C227.869 279.262 251.108 253.724 281.816 249.603L501.945 240.053L159.374 161.79C124.531 156.249 100.704 123.584 106.155 88.8337C111.605 54.0844 144.268 30.409 179.111 35.9523L1100.29 182.519C1131.59 187.5 1154.57 214.612 1154.27 246.221C1153.98 277.829 1130.51 304.373 1099.12 308.585L909.084 345.453L1022.97 388.659C1054.52 395.515 1076.04 424.76 1073.15 456.811C1070.26 488.861 1043.86 513.654 1011.62 514.597L835.799 519.739L909.084 615.568C930.509 643.584 925.168 683.556 897.157 704.849C877.008 720.165 850.615 721.643 829.413 710.841C821.14 706.625 813.657 700.54 807.643 692.676Z" fill="white"/>
</mask>
<g mask="url(#mask0)">
</g>
</svg>
