<svg width="34" height="25" viewBox="0 0 34 25" fill="none" xmlns="http://www.w3.org/2000/svg">
<path fill-rule="evenodd" clip-rule="evenodd" d="M12.5 24C18.8513 24 24 18.8513 24 12.5C24 6.14873 18.8513 1 12.5 1C6.14873 1 1 6.14873 1 12.5C1 18.8513 6.14873 24 12.5 24Z" stroke="black" stroke-width="2"/>
<path d="M13.921 15.2217C12.418 15.8997 11.7418 17.6842 12.4107 19.2076C13.0796 20.731 14.8403 21.4164 16.3433 20.7384L27.6707 15.6288C30.2077 14.4844 29.9561 10.7544 27.2891 9.97061L24.5036 9.152L31.4986 7.99977C33.1224 7.7323 34.2249 6.18122 33.961 4.53535C33.6971 2.88948 32.1668 1.77208 30.543 2.03955L10.5013 5.34083C7.36618 5.85724 7.09899 10.3242 10.1496 11.2207L17.8038 13.4702L13.921 15.2217Z" fill="#FF937D"/>
</svg>
