<svg width="775" height="799" viewBox="0 0 775 799" fill="none" xmlns="http://www.w3.org/2000/svg">
<path fill-rule="evenodd" clip-rule="evenodd" d="M775.436 680.407L716.167 800.047L506.551 800.047L494.668 675.631L478.145 800.047L309.897 800.047L298.083 627.042L293.764 658.132C289.055 692.044 259.653 717.049 225.433 716.244C191.213 715.438 163.076 689.079 160.036 654.983L119.542 200.551C116.243 163.519 143.587 130.792 180.619 127.452C198.986 125.796 216.289 131.684 229.465 142.553L249.326 -1.39004L392.404 -1.39005L410.059 142.553L438.542 70.1409C443.008 36.1854 472.246 10.9654 506.481 11.5384C536.913 12.0477 562.675 32.7965 570.31 61.3406C571.264 64.9076 571.935 68.5941 572.296 72.38L629.568 671.85L664.391 601.323C680.859 567.97 721.231 554.256 754.563 570.691C763.688 575.19 775.436 588.933 775.436 588.933L775.436 680.407Z" fill="#F0E7E5"/>
<mask id="mask0" mask-type="alpha" maskUnits="userSpaceOnUse" x="0" y="-94" width="825" height="1024">
<path fill-rule="evenodd" clip-rule="evenodd" d="M775.436 680.407L716.167 800.047L506.551 800.047L494.668 675.631L478.145 800.047L309.897 800.047L298.083 627.042L293.764 658.132C289.055 692.044 259.653 717.049 225.433 716.244C191.213 715.438 163.076 689.079 160.036 654.983L119.542 200.551C116.243 163.519 143.587 130.792 180.619 127.452C198.986 125.796 216.289 131.684 229.465 142.553L249.326 -1.39004L392.404 -1.39005L410.059 142.553L438.542 70.1409C443.008 36.1854 472.246 10.9654 506.481 11.5384C536.913 12.0477 562.675 32.7965 570.31 61.3406C571.264 64.9076 571.935 68.5941 572.296 72.38L629.568 671.85L664.391 601.323C680.859 567.97 721.231 554.256 754.563 570.691C763.688 575.19 775.436 588.933 775.436 588.933L775.436 680.407Z" fill="white"/>
</mask>
<g mask="url(#mask0)">
<rect x="-171" y="-9" width="1221" height="814"/>
</g>
</svg>
