<svg xmlns="http://www.w3.org/2000/svg" width="400" height="310" viewBox="0 0 400 310"><g><g transform="rotate(-14 200 152)"><path fill="#ffd567" d="M282.534 283.378L390.47 188.67c10.299-9.036 13.361-23.799 7.501-36.16-5.86-12.364-19.217-19.325-32.722-17.05l-110.38 18.58 127.176-52.667c14.554-6.028 22.186-22.098 17.651-37.165s-19.76-24.225-35.211-21.18L210.379 73.403l13.16-5.562c14.356-6.066 21.89-21.93 17.51-36.87-4.38-14.938-19.279-24.193-34.627-21.51C145.1 20.188 21.78 41.469 21.78 41.469l-34.425 138.065 86.549-16.813-91.84 38.035L-30 249.135s14.796 10.553 23.696 10.546c1.68-.001 3.38-.141 5.087-.429l270.294-45.5-26.91 23.612c-12.726 11.166-14.006 30.52-2.86 43.226 6.05 6.896 14.518 10.417 23.03 10.41a30.564 30.564 0 0 0 20.197-7.622z"/></g></g></svg>
