<svg xmlns="http://www.w3.org/2000/svg" width="707" height="836" viewBox="0 0 707 836" fill="#ffd567">
  <path
     d="m 165.74692,69.940728 c -3.3674,4.16325 -6.2094,8.86115 -8.412,14.05955 L 70.216619,289.60398 c -10.9256,25.783 -2.994,57.223 19.68302,78.023 22.676381,20.799 54.999381,26.283 80.215881,13.608 l 5.5097,-2.769 -94.627501,83.105 c -2.5409,2.231 -4.8474,4.64 -6.9105,7.192 -17.9661,22.213 -17.7845,55.491 1.6401,81.328 21.65557,28.803 60.362701,39.215 90.028801,24.215 l 14.7382,-7.451 -161.651302,150.586 c -26.1065005,24.316 -24.9435005,66.88 2.6042,95.053 27.548201,28.175 71.045941,31.297 97.155502,6.975 l 525.7478,-489.758 c 23.751,-22.132 25.222,-59.848 3.425,-88.119 -16.329,-21.179 -41.918,-32.128 -66.075,-30.045 l 104.731,-91.9784 c 24.634,-21.641002 26.924,-59.657612 5.317,-88.457301 -21.607,-28.8004998 -60.265,-39.2625998 -89.947,-24.3433998 l -327.467,164.6001008 10.751,-25.3736 c 14.004,-33.0502 -3.242,-73.720422 -38.52,-90.839762 -29.728,-14.426739 -62.7778,-7.520939 -80.8186,14.78611 z" />
</svg>
