<svg width="689" height="372" viewBox="0 0 689 372" fill="none" xmlns="http://www.w3.org/2000/svg">
<path fill-rule="evenodd" clip-rule="evenodd" d="M538.409 370.318C532.61 368.656 527.083 365.703 522.273 361.435L403.326 255.903C392.689 246.466 387.7 232.346 389.888 218.525L252.409 215.452C232.266 215.002 215.325 200.204 212.234 180.363C209.142 160.521 220.793 141.366 239.864 134.938L366.398 92.2875L43.0166 103.297C20.11 104.079 0.863166 86.2071 0.0280826 63.3822C-0.807 40.5577 17.085 21.4231 39.9917 20.6429L645.604 0.0243919C666.181 -0.675559 684.198 13.7617 687.932 33.9458C691.666 54.1294 679.989 73.9554 660.498 80.5252L489.859 138.041L621.873 140.993C642.837 141.458 660.192 157.434 662.326 178.221C664.459 199.009 650.698 218.081 630.254 222.673L518.773 247.717L577.395 299.727C594.533 314.932 596.087 341.072 580.865 358.112C569.916 370.369 553.269 374.579 538.409 370.318Z" fill="white"/>
</svg>
