<svg width="56" height="38" viewBox="0 0 56 38" fill="none" xmlns="http://www.w3.org/2000/svg">
<path fill-rule="evenodd" clip-rule="evenodd" d="M27.1217 1.05937C7.16341 1.91893 1.06407 7.74901 1.00094 19.197C0.937811 30.645 7.16341 37 26.9235 37C46.6836 37 54.56 32.4104 54.9846 20.5894C55.4092 8.76851 47.08 0.199816 27.1217 1.05937Z" stroke="white" stroke-width="2"/>
<path d="M34.9258 22.2249C34.9088 22.1883 34.893 22.1579 34.8783 22.1336C34.6354 21.6955 34.1712 21.1577 33.4861 20.5201L33.4716 20.5055L33.4643 20.4983L33.457 20.491H33.4497C33.1387 20.1941 32.9418 19.9945 32.8593 19.8923C32.7084 19.6976 32.6746 19.5005 32.7571 19.3008C32.8154 19.1499 33.0342 18.8313 33.4131 18.3446C33.6125 18.0866 33.7703 17.8798 33.8869 17.724C34.7276 16.6046 35.0921 15.8892 34.9803 15.5777L34.9369 15.5049C34.9077 15.4611 34.8324 15.421 34.711 15.3844C34.5894 15.3479 34.434 15.3419 34.2444 15.3662L32.1452 15.3807C32.1111 15.3687 32.0626 15.3698 31.9993 15.3844C31.9361 15.399 31.9045 15.4064 31.9045 15.4064L31.868 15.4247L31.839 15.4466C31.8147 15.4612 31.788 15.4867 31.7588 15.5232C31.7297 15.5596 31.7055 15.6023 31.6861 15.651C31.4575 16.2399 31.1977 16.7874 30.906 17.2935C30.7262 17.5954 30.5611 17.8569 30.4103 18.0784C30.2597 18.2998 30.1333 18.4629 30.0313 18.5674C29.9292 18.6721 29.837 18.7559 29.7543 18.8193C29.6716 18.8826 29.6085 18.9094 29.5649 18.8996C29.5211 18.8898 29.4798 18.8801 29.4408 18.8704C29.3728 18.8266 29.3181 18.767 29.2769 18.6915C29.2355 18.6161 29.2076 18.5211 29.193 18.4068C29.1785 18.2923 29.17 18.1939 29.1675 18.1111C29.1652 18.0284 29.1663 17.9115 29.1712 17.7606C29.1763 17.6097 29.1785 17.5076 29.1785 17.454C29.1785 17.269 29.1821 17.0683 29.1894 16.8517C29.1967 16.6351 29.2027 16.4635 29.2076 16.3371C29.2126 16.2106 29.2149 16.0767 29.2149 15.9355C29.2149 15.7944 29.2063 15.6837 29.1894 15.6033C29.1726 15.5231 29.1469 15.4452 29.113 15.3697C29.0789 15.2943 29.0291 15.2359 28.9636 15.1945C28.898 15.1531 28.8165 15.1203 28.7194 15.0959C28.4618 15.0375 28.1338 15.0059 27.7353 15.001C26.8315 14.9913 26.2507 15.0498 25.9932 15.1763C25.8911 15.2298 25.7988 15.3028 25.7162 15.3953C25.6287 15.5024 25.6165 15.5608 25.6797 15.5704C25.9713 15.6142 26.1777 15.7188 26.2992 15.8843L26.343 15.972C26.3771 16.0353 26.4111 16.1473 26.4451 16.3078C26.4791 16.4684 26.501 16.6461 26.5107 16.8406C26.5349 17.196 26.5349 17.5002 26.5107 17.7532C26.4863 18.0064 26.4634 18.2034 26.4414 18.3446C26.4195 18.4857 26.3867 18.6001 26.343 18.6877C26.2992 18.7753 26.2701 18.8288 26.2555 18.8483C26.2409 18.8677 26.2288 18.88 26.2191 18.8848C26.156 18.909 26.0903 18.9213 26.0223 18.9213C25.9542 18.9213 25.8716 18.8872 25.7744 18.8191C25.6773 18.7509 25.5765 18.6573 25.472 18.538C25.3675 18.4187 25.2496 18.252 25.1184 18.0379C24.9872 17.8238 24.8512 17.5707 24.7102 17.2787L24.5936 17.0669C24.5207 16.9307 24.4212 16.7323 24.2948 16.472C24.1684 16.2115 24.0566 15.9596 23.9595 15.7163C23.9207 15.6141 23.8623 15.5363 23.7846 15.4827L23.7481 15.4607C23.7238 15.4413 23.6849 15.4207 23.6315 15.3987C23.578 15.3767 23.5222 15.361 23.4638 15.3513L21.4666 15.3658C21.2625 15.3658 21.124 15.4121 21.0511 15.5046L21.0219 15.5483C21.0074 15.5727 21 15.6116 21 15.6652C21 15.7187 21.0146 15.7845 21.0438 15.8623C21.3353 16.5486 21.6524 17.2105 21.995 17.848C22.3375 18.4856 22.6352 18.9992 22.8878 19.3883C23.1405 19.7777 23.3981 20.1452 23.6605 20.4907C23.9229 20.8363 24.0966 21.0577 24.1816 21.155C24.2667 21.2525 24.3336 21.3254 24.3822 21.3741L24.5644 21.5492C24.681 21.6661 24.8523 21.806 25.0783 21.969C25.3043 22.1321 25.5545 22.2927 25.8291 22.451C26.1037 22.609 26.4232 22.738 26.7877 22.8378C27.1521 22.9376 27.5068 22.9777 27.8519 22.9584H28.6902C28.8602 22.9437 28.989 22.8901 29.0765 22.7977L29.1055 22.7611C29.125 22.7321 29.1433 22.6869 29.1601 22.6262C29.1772 22.5654 29.1857 22.4984 29.1857 22.4255C29.1807 22.2162 29.1966 22.0276 29.2329 21.8597C29.2693 21.6919 29.3107 21.5653 29.357 21.4801C29.4033 21.395 29.4555 21.3231 29.5136 21.2649C29.5719 21.2065 29.6134 21.1711 29.6378 21.159C29.662 21.1467 29.6813 21.1384 29.6959 21.1334C29.8125 21.0945 29.9498 21.1322 30.1079 21.2467C30.2658 21.361 30.414 21.5023 30.5525 21.6701C30.691 21.8381 30.8575 22.0266 31.0518 22.2358C31.2463 22.4451 31.4163 22.6007 31.562 22.7031L31.7078 22.7907C31.8051 22.8492 31.9314 22.9027 32.087 22.9514C32.2422 23 32.3782 23.0122 32.495 22.9878L34.361 22.9587C34.5456 22.9587 34.6892 22.9281 34.7911 22.8674C34.8931 22.8065 34.9538 22.7395 34.9733 22.6666C34.9928 22.5936 34.9939 22.5108 34.977 22.4183C34.9597 22.3259 34.9427 22.2614 34.9258 22.2249Z" fill="white"/>
</svg>
