<svg width="1197" height="9" viewBox="0 0 1197 9" fill="none" xmlns="http://www.w3.org/2000/svg">
<path d="M1 7L7.25 2L13.5 7L19.75 2L26 7L32.25 2L38.5 7L44.75 2L51 7L57.25 2L63.5 7L69.75 2L76 7" stroke="black" stroke-width="2"/>
<path d="M593 7L599.25 2L605.5 7L611.75 2L618 7L624.25 2L630.5 7L636.75 2L643 7L649.25 2L655.5 7L661.75 2L668 7" stroke="black" stroke-width="2"/>
<path d="M297 7L303.25 2L309.5 7L315.75 2L322 7L328.25 2L334.5 7L340.75 2L347 7L353.25 2L359.5 7L365.75 2L372 7" stroke="black" stroke-width="2"/>
<path d="M889 7L895.25 2L901.5 7L907.75 2L914 7L920.25 2L926.5 7L932.75 2L939 7L945.25 2L951.5 7L957.75 2L964 7" stroke="black" stroke-width="2"/>
<path d="M149 7L155.25 2L161.5 7L167.75 2L174 7L180.25 2L186.5 7L192.75 2L199 7L205.25 2L211.5 7L217.75 2L224 7" stroke="black" stroke-width="2"/>
<path d="M741 7L747.25 2L753.5 7L759.75 2L766 7L772.25 2L778.5 7L784.75 2L791 7L797.25 2L803.5 7L809.75 2L816 7" stroke="black" stroke-width="2"/>
<path d="M445 7L451.25 2L457.5 7L463.75 2L470 7L476.25 2L482.5 7L488.75 2L495 7L501.25 2L507.5 7L513.75 2L520 7" stroke="black" stroke-width="2"/>
<path d="M1037 7L1043.25 2L1049.5 7L1055.75 2L1062 7L1068.25 2L1074.5 7L1080.75 2L1087 7L1093.25 2L1099.5 7L1105.75 2L1112 7" stroke="black" stroke-width="2"/>
<path d="M75 7L81.25 2L87.5 7L93.75 2L100 7L106.25 2L112.5 7L118.75 2L125 7L131.25 2L137.5 7L143.75 2L150 7" stroke="black" stroke-width="2"/>
<path d="M667 7L673.25 2L679.5 7L685.75 2L692 7L698.25 2L704.5 7L710.75 2L717 7L723.25 2L729.5 7L735.75 2L742 7" stroke="black" stroke-width="2"/>
<path d="M371 7L377.25 2L383.5 7L389.75 2L396 7L402.25 2L408.5 7L414.75 2L421 7L427.25 2L433.5 7L439.75 2L446 7" stroke="black" stroke-width="2"/>
<path d="M963 7L969.25 2L975.5 7L981.75 2L988 7L994.25 2L1000.5 7L1006.75 2L1013 7L1019.25 2L1025.5 7L1031.75 2L1038 7" stroke="black" stroke-width="2"/>
<path d="M223 7L229.25 2L235.5 7L241.75 2L248 7L254.25 2L260.5 7L266.75 2L273 7L279.25 2L285.5 7L291.75 2L298 7" stroke="black" stroke-width="2"/>
<path d="M815 7L821.25 2L827.5 7L833.75 2L840 7L846.25 2L852.5 7L858.75 2L865 7L871.25 2L877.5 7L883.75 2L890 7" stroke="black" stroke-width="2"/>
<path d="M519 7L525.25 2L531.5 7L537.75 2L544 7L550.25 2L556.5 7L562.75 2L569 7L575.25 2L581.5 7L587.75 2L594 7" stroke="black" stroke-width="2"/>
<path d="M1111 7L1117.25 2L1123.5 7L1129.75 2L1136 7L1142.25 2L1148.5 7" stroke="black" stroke-width="2"/>
<path d="M1147 7L1153.25 2L1159.5 7L1165.75 2L1172 7L1178.25 2L1184.5 7" stroke="black" stroke-width="2"/>
<path d="M1183 7L1189.25 2L1195.5 7" stroke="black" stroke-width="2"/>
</svg>
